<?xml version="1.0" encoding="utf-8" standalone="no"?>
<!DOCTYPE svg PUBLIC "-//W3C//DTD SVG 1.1//EN"
  "http://www.w3.org/Graphics/SVG/1.1/DTD/svg11.dtd">
<!-- Created with matplotlib (https://matplotlib.org/) -->
<svg height="201.6pt" version="1.1" viewBox="0 0 792 201.6" width="792pt" xmlns="http://www.w3.org/2000/svg" xmlns:xlink="http://www.w3.org/1999/xlink">
 <defs>
  <style type="text/css">
*{stroke-linecap:butt;stroke-linejoin:round;}
  </style>
 </defs>
 <g id="figure_1">
  <g id="patch_1">
   <path d="M 0 201.6 
L 792 201.6 
L 792 0 
L 0 0 
z
" style="fill:#ffffff;"/>
  </g>
  <g id="axes_1">
   <g id="patch_2">
    <path d="M 45 182.592 
L 202.695652 182.592 
L 202.695652 49.536 
L 45 49.536 
z
" style="fill:#ffffff;"/>
   </g>
   <g id="matplotlib.axis_1">
    <g id="xtick_1">
     <g id="line2d_1">
      <defs>
       <path d="M 0 0 
L 0 3.5 
" id="m19757bad77" style="stroke:#000000;stroke-width:0.8;"/>
      </defs>
      <g>
       <use style="stroke:#000000;stroke-width:0.8;" x="52.167984" xlink:href="#m19757bad77" y="182.592"/>
      </g>
     </g>
     <g id="text_1">
      <!-- 1 -->
      <defs>
       <path d="M 32.5625 67.578125 
L 32.5625 13.421875 
Q 32.5625 7.328125 33.09375 5.640625 
Q 33.640625 3.953125 35.34375 2.875 
Q 37.0625 1.8125 40.828125 1.8125 
L 42.328125 1.8125 
L 42.328125 0 
L 7.46875 0 
L 7.46875 1.8125 
L 9.234375 1.8125 
Q 13.484375 1.8125 15.28125 2.78125 
Q 17.09375 3.765625 17.71875 5.46875 
Q 18.359375 7.171875 18.359375 13.421875 
L 18.359375 47.75 
Q 18.359375 52.34375 17.921875 53.484375 
Q 17.484375 54.640625 16.28125 55.4375 
Q 15.09375 56.25 13.53125 56.25 
Q 11.03125 56.25 7.46875 54.6875 
L 6.59375 56.453125 
L 30.953125 67.578125 
z
" id="TimesNewRomanPS-BoldMT-49"/>
      </defs>
      <g transform="translate(49.167984 197.53825)scale(0.12 -0.12)">
       <use xlink:href="#TimesNewRomanPS-BoldMT-49"/>
      </g>
     </g>
    </g>
    <g id="xtick_2">
     <g id="line2d_2">
      <g>
       <use style="stroke:#000000;stroke-width:0.8;" x="68.096838" xlink:href="#m19757bad77" y="182.592"/>
      </g>
     </g>
     <g id="text_2">
      <!-- 2 -->
      <defs>
       <path d="M 41.40625 0 
L 2.4375 0 
L 2.4375 1.078125 
Q 20.359375 22.40625 24.1875 29.78125 
Q 28.03125 37.15625 28.03125 44.1875 
Q 28.03125 49.3125 24.859375 52.703125 
Q 21.6875 56.109375 17.09375 56.109375 
Q 9.578125 56.109375 5.421875 48.578125 
L 3.609375 49.21875 
Q 6.25 58.59375 11.625 63.078125 
Q 17 67.578125 24.03125 67.578125 
Q 29.046875 67.578125 33.203125 65.234375 
Q 37.359375 62.890625 39.703125 58.8125 
Q 42.046875 54.734375 42.046875 51.171875 
Q 42.046875 44.671875 38.421875 37.984375 
Q 33.5 28.953125 16.890625 12.796875 
L 31.203125 12.796875 
Q 36.46875 12.796875 38.0625 13.234375 
Q 39.65625 13.671875 40.671875 14.71875 
Q 41.703125 15.765625 43.359375 19.140625 
L 45.125 19.140625 
z
" id="TimesNewRomanPS-BoldMT-50"/>
      </defs>
      <g transform="translate(65.096838 197.53825)scale(0.12 -0.12)">
       <use xlink:href="#TimesNewRomanPS-BoldMT-50"/>
      </g>
     </g>
    </g>
    <g id="xtick_3">
     <g id="line2d_3">
      <g>
       <use style="stroke:#000000;stroke-width:0.8;" x="84.025692" xlink:href="#m19757bad77" y="182.592"/>
      </g>
     </g>
     <g id="text_3">
      <!-- 3 -->
      <defs>
       <path d="M 14.796875 33.203125 
L 14.796875 34.90625 
Q 20.359375 36.53125 22.5 37.921875 
Q 24.65625 39.3125 26.21875 42.15625 
Q 27.78125 45.015625 27.78125 47.953125 
Q 27.78125 52 24.828125 54.90625 
Q 21.875 57.8125 17.484375 57.8125 
Q 10.640625 57.8125 5.859375 50.59375 
L 4.046875 51.21875 
Q 7.5625 59.375 13.0625 63.46875 
Q 18.5625 67.578125 25.296875 67.578125 
Q 32.171875 67.578125 36.640625 63.375 
Q 41.109375 59.1875 41.109375 53.5625 
Q 41.109375 49.90625 39.03125 46.5 
Q 36.96875 43.109375 32.515625 40.53125 
Q 38.234375 37.75 41.234375 33.671875 
Q 44.234375 29.59375 44.234375 23.4375 
Q 44.234375 13.09375 36.734375 5.828125 
Q 29.25 -1.421875 16.65625 -1.421875 
Q 8.25 -1.421875 4.390625 1.375 
Q 1.609375 3.328125 1.609375 6.390625 
Q 1.609375 8.640625 3.21875 10.21875 
Q 4.828125 11.8125 6.9375 11.8125 
Q 8.546875 11.8125 9.96875 11.140625 
Q 10.75 10.75 15.5 6.859375 
Q 20.265625 2.984375 24.421875 2.984375 
Q 28.03125 2.984375 30.609375 5.828125 
Q 33.203125 8.6875 33.203125 13.09375 
Q 33.203125 19.78125 28.515625 25.421875 
Q 23.828125 31.0625 14.796875 33.203125 
z
" id="TimesNewRomanPS-BoldMT-51"/>
      </defs>
      <g transform="translate(81.025692 197.53825)scale(0.12 -0.12)">
       <use xlink:href="#TimesNewRomanPS-BoldMT-51"/>
      </g>
     </g>
    </g>
    <g id="xtick_4">
     <g id="line2d_4">
      <g>
       <use style="stroke:#000000;stroke-width:0.8;" x="99.954545" xlink:href="#m19757bad77" y="182.592"/>
      </g>
     </g>
     <g id="text_4">
      <!-- 4 -->
      <defs>
       <path d="M 2.484375 24.953125 
L 33.9375 67.578125 
L 39.890625 67.578125 
L 39.890625 24.953125 
L 45.953125 24.953125 
L 45.953125 14.84375 
L 39.890625 14.84375 
L 39.890625 0 
L 26.46875 0 
L 26.46875 14.84375 
L 2.484375 14.84375 
z
M 7.234375 24.953125 
L 26.46875 24.953125 
L 26.46875 51.078125 
z
" id="TimesNewRomanPS-BoldMT-52"/>
      </defs>
      <g transform="translate(96.954545 197.53825)scale(0.12 -0.12)">
       <use xlink:href="#TimesNewRomanPS-BoldMT-52"/>
      </g>
     </g>
    </g>
    <g id="xtick_5">
     <g id="line2d_5">
      <g>
       <use style="stroke:#000000;stroke-width:0.8;" x="115.883399" xlink:href="#m19757bad77" y="182.592"/>
      </g>
     </g>
     <g id="text_5">
      <!-- 5 -->
      <defs>
       <path d="M 15.234375 66.21875 
L 46.234375 66.21875 
L 41.3125 53.609375 
L 15.234375 53.609375 
L 12.75 47.015625 
Q 29.59375 46.390625 38.671875 38.625 
Q 46.140625 32.234375 46.140625 22.703125 
Q 46.140625 16.609375 42.671875 10.765625 
Q 39.203125 4.9375 32.90625 1.78125 
Q 26.609375 -1.375 19.09375 -1.375 
Q 10.984375 -1.375 6.640625 1.65625 
Q 3.609375 3.8125 3.609375 6.546875 
Q 3.609375 8.640625 5.1875 10.25 
Q 6.78125 11.859375 8.890625 11.859375 
Q 10.796875 11.859375 12.75 11.078125 
Q 14.703125 10.296875 19.4375 6.984375 
Q 22.40625 4.9375 24.5625 4.15625 
Q 26.078125 3.5625 27.984375 3.5625 
Q 31.984375 3.5625 34.78125 6.484375 
Q 37.59375 9.421875 37.59375 13.53125 
Q 37.59375 22.125 29 27.484375 
Q 20.40625 32.859375 7.328125 32.859375 
Q 6 32.859375 3.375 32.8125 
z
" id="TimesNewRomanPS-BoldMT-53"/>
      </defs>
      <g transform="translate(112.883399 197.53825)scale(0.12 -0.12)">
       <use xlink:href="#TimesNewRomanPS-BoldMT-53"/>
      </g>
     </g>
    </g>
    <g id="xtick_6">
     <g id="line2d_6">
      <g>
       <use style="stroke:#000000;stroke-width:0.8;" x="131.812253" xlink:href="#m19757bad77" y="182.592"/>
      </g>
     </g>
     <g id="text_6">
      <!-- 6 -->
      <defs>
       <path d="M 46.96875 67.578125 
L 46.96875 66.21875 
Q 38.140625 63.96875 32.78125 60.421875 
Q 27.4375 56.890625 24.328125 51.828125 
Q 21.234375 46.78125 19.53125 39.3125 
Q 21.6875 40.765625 23.09375 41.21875 
Q 26.265625 42.1875 29.5 42.1875 
Q 36.921875 42.1875 41.875 36.78125 
Q 46.828125 31.390625 46.828125 22.078125 
Q 46.828125 15.53125 44.140625 10.0625 
Q 41.453125 4.59375 36.515625 1.609375 
Q 31.59375 -1.375 25.984375 -1.375 
Q 19.875 -1.375 14.6875 1.96875 
Q 9.515625 5.328125 6.609375 11.765625 
Q 3.71875 18.21875 3.71875 25.78125 
Q 3.71875 36.921875 9.0625 46.515625 
Q 14.40625 56.109375 24.234375 61.796875 
Q 34.078125 67.484375 46.96875 67.578125 
z
M 18.890625 35.359375 
Q 18.5 28.609375 18.5 25.484375 
Q 18.5 18.75 19.796875 12.453125 
Q 21.09375 6.15625 23.34375 3.609375 
Q 24.953125 1.8125 27.15625 1.8125 
Q 29.390625 1.8125 31.140625 4.421875 
Q 32.90625 7.03125 32.90625 15.046875 
Q 32.90625 28.515625 29.640625 33.640625 
Q 27.546875 36.96875 23.96875 36.96875 
Q 22.015625 36.96875 18.890625 35.359375 
z
" id="TimesNewRomanPS-BoldMT-54"/>
      </defs>
      <g transform="translate(128.812253 197.53825)scale(0.12 -0.12)">
       <use xlink:href="#TimesNewRomanPS-BoldMT-54"/>
      </g>
     </g>
    </g>
    <g id="xtick_7">
     <g id="line2d_7">
      <g>
       <use style="stroke:#000000;stroke-width:0.8;" x="147.741107" xlink:href="#m19757bad77" y="182.592"/>
      </g>
     </g>
     <g id="text_7">
      <!-- 7 -->
      <defs>
       <path d="M 17.71875 -1.375 
L 35.75 53.265625 
L 22.015625 53.265625 
Q 13.96875 53.265625 9.90625 51.171875 
Q 7.078125 49.703125 5.21875 45.65625 
L 3.375 45.65625 
L 8.15625 66.21875 
L 47.609375 66.21875 
L 25.390625 -1.375 
z
" id="TimesNewRomanPS-BoldMT-55"/>
      </defs>
      <g transform="translate(144.741107 197.53825)scale(0.12 -0.12)">
       <use xlink:href="#TimesNewRomanPS-BoldMT-55"/>
      </g>
     </g>
    </g>
    <g id="xtick_8">
     <g id="line2d_8">
      <g>
       <use style="stroke:#000000;stroke-width:0.8;" x="163.66996" xlink:href="#m19757bad77" y="182.592"/>
      </g>
     </g>
     <g id="text_8">
      <!-- 8 -->
      <defs>
       <path d="M 34.078125 37.40625 
Q 41.0625 32.28125 43.765625 27.859375 
Q 46.484375 23.4375 46.484375 17.71875 
Q 46.484375 9.71875 40.453125 4.171875 
Q 34.421875 -1.375 24.078125 -1.375 
Q 14.265625 -1.375 8.890625 3.453125 
Q 3.515625 8.296875 3.515625 15.28125 
Q 3.515625 20.609375 6.609375 24.609375 
Q 9.71875 28.609375 16.9375 31.9375 
Q 9.078125 37.9375 6.859375 41.75 
Q 4.640625 45.5625 4.640625 50.59375 
Q 4.640625 57.234375 10.28125 62.28125 
Q 15.921875 67.328125 25.734375 67.328125 
Q 35.203125 67.328125 40.296875 62.859375 
Q 45.40625 58.40625 45.40625 52.15625 
Q 45.40625 47.46875 42.640625 43.875 
Q 39.890625 40.28125 34.078125 37.40625 
z
M 30.375 39.890625 
Q 32.171875 42.328125 33.046875 45.359375 
Q 33.9375 48.390625 33.9375 52 
Q 33.9375 58.34375 31.203125 61.71875 
Q 29.15625 64.3125 25.53125 64.3125 
Q 22.265625 64.3125 19.96875 61.9375 
Q 17.671875 59.578125 17.671875 56.0625 
Q 17.671875 52.484375 20.234375 48.65625 
Q 22.796875 44.828125 30.375 39.890625 
z
M 20.609375 29.59375 
Q 19.09375 28.21875 18.453125 27.09375 
Q 17.484375 25.390625 16.703125 22.109375 
Q 15.921875 18.84375 15.921875 15.28125 
Q 15.921875 10.6875 17.09375 7.59375 
Q 18.265625 4.5 20.4375 3.125 
Q 22.609375 1.765625 24.90625 1.765625 
Q 28.46875 1.765625 30.90625 4.375 
Q 33.34375 6.984375 33.34375 11.53125 
Q 33.34375 21 20.609375 29.59375 
z
" id="TimesNewRomanPS-BoldMT-56"/>
      </defs>
      <g transform="translate(160.66996 197.53825)scale(0.12 -0.12)">
       <use xlink:href="#TimesNewRomanPS-BoldMT-56"/>
      </g>
     </g>
    </g>
    <g id="xtick_9">
     <g id="line2d_9">
      <g>
       <use style="stroke:#000000;stroke-width:0.8;" x="179.598814" xlink:href="#m19757bad77" y="182.592"/>
      </g>
     </g>
     <g id="text_9">
      <!-- 9 -->
      <defs>
       <path d="M 3.078125 -1.375 
L 3.078125 0 
Q 11.1875 1.859375 16.828125 5.46875 
Q 22.46875 9.078125 25.75 14.40625 
Q 29.046875 19.734375 30.375 26.65625 
Q 27.34375 25.09375 25.21875 24.484375 
Q 23.09375 23.875 20.75 23.875 
Q 13.234375 23.875 8.21875 29.296875 
Q 3.21875 34.71875 3.21875 44.140625 
Q 3.21875 50.6875 5.921875 56.125 
Q 8.640625 61.578125 13.671875 64.578125 
Q 18.703125 67.578125 24.125 67.578125 
Q 29.9375 67.578125 35.109375 64.25 
Q 40.28125 60.9375 43.359375 54.640625 
Q 46.4375 48.34375 46.4375 40.28125 
Q 46.4375 29.828125 41.421875 20.25 
Q 36.421875 10.6875 26.515625 4.90625 
Q 16.609375 -0.875 3.078125 -1.375 
z
M 31.109375 30.765625 
Q 31.59375 36.234375 31.59375 40.375 
Q 31.59375 49.265625 29.546875 56.9375 
Q 28.375 61.1875 26.078125 63.1875 
Q 24.859375 64.265625 22.90625 64.265625 
Q 20.453125 64.265625 19.09375 62.15625 
Q 17.1875 59.28125 17.1875 51.171875 
Q 17.1875 37.640625 20.40625 32.515625 
Q 22.515625 29.203125 26.078125 29.203125 
Q 27.984375 29.203125 31.109375 30.765625 
z
" id="TimesNewRomanPS-BoldMT-57"/>
      </defs>
      <g transform="translate(176.598814 197.53825)scale(0.12 -0.12)">
       <use xlink:href="#TimesNewRomanPS-BoldMT-57"/>
      </g>
     </g>
    </g>
    <g id="xtick_10">
     <g id="line2d_10">
      <g>
       <use style="stroke:#000000;stroke-width:0.8;" x="195.527668" xlink:href="#m19757bad77" y="182.592"/>
      </g>
     </g>
     <g id="text_10">
      <!-- 10 -->
      <defs>
       <path d="M 46.34375 33.109375 
Q 46.34375 23.1875 43.5625 14.59375 
Q 41.890625 9.328125 39.078125 5.953125 
Q 36.28125 2.59375 32.71875 0.609375 
Q 29.15625 -1.375 24.953125 -1.375 
Q 20.171875 -1.375 16.3125 1.0625 
Q 12.453125 3.515625 9.46875 8.0625 
Q 7.328125 11.375 5.71875 16.890625 
Q 3.609375 24.359375 3.609375 32.328125 
Q 3.609375 43.109375 6.640625 52.15625 
Q 9.125 59.625 14.203125 63.59375 
Q 19.28125 67.578125 24.953125 67.578125 
Q 30.71875 67.578125 35.71875 63.640625 
Q 40.71875 59.71875 43.0625 53.078125 
Q 46.34375 43.953125 46.34375 33.109375 
z
M 31.296875 33.203125 
Q 31.296875 50.59375 31.109375 53.46875 
Q 30.609375 60.25 28.765625 62.640625 
Q 27.546875 64.203125 24.8125 64.203125 
Q 22.703125 64.203125 21.484375 63.03125 
Q 19.671875 61.328125 19.03125 57 
Q 18.40625 52.6875 18.40625 26.859375 
Q 18.40625 12.796875 19.390625 8.015625 
Q 20.125 4.546875 21.484375 3.375 
Q 22.859375 2.203125 25.09375 2.203125 
Q 27.546875 2.203125 28.765625 3.765625 
Q 30.8125 6.5 31.109375 12.203125 
z
" id="TimesNewRomanPS-BoldMT-48"/>
      </defs>
      <g transform="translate(189.527668 197.53825)scale(0.12 -0.12)">
       <use xlink:href="#TimesNewRomanPS-BoldMT-49"/>
       <use x="50" xlink:href="#TimesNewRomanPS-BoldMT-48"/>
      </g>
     </g>
    </g>
    <g id="text_11">
     <!-- number of operations (100k) -->
     <defs>
      <path d="M 22.015625 45.65625 
L 22.015625 39.75 
Q 25.53125 43.5625 28.75 45.28125 
Q 31.984375 47.015625 35.6875 47.015625 
Q 40.140625 47.015625 43.0625 44.546875 
Q 46 42.09375 46.96875 38.421875 
Q 47.75 35.640625 47.75 27.734375 
L 47.75 9.96875 
Q 47.75 4.6875 48.703125 3.390625 
Q 49.65625 2.09375 52.6875 1.765625 
L 52.6875 0 
L 29.59375 0 
L 29.59375 1.765625 
Q 32.171875 2.09375 33.296875 3.90625 
Q 34.078125 5.125 34.078125 9.96875 
L 34.078125 30.28125 
Q 34.078125 35.890625 33.640625 37.34375 
Q 33.203125 38.8125 32.15625 39.625 
Q 31.109375 40.4375 29.828125 40.4375 
Q 25.640625 40.4375 22.015625 34.421875 
L 22.015625 9.96875 
Q 22.015625 4.828125 22.96875 3.453125 
Q 23.921875 2.09375 26.515625 1.765625 
L 26.515625 0 
L 3.421875 0 
L 3.421875 1.765625 
Q 6.296875 2.046875 7.515625 3.609375 
Q 8.34375 4.6875 8.34375 9.96875 
L 8.34375 35.75 
Q 8.34375 40.921875 7.390625 42.1875 
Q 6.453125 43.453125 3.421875 43.84375 
L 3.421875 45.65625 
z
" id="TimesNewRomanPS-BoldMT-110"/>
      <path d="M 47.46875 45.65625 
L 47.46875 9.90625 
Q 47.46875 4.6875 48.4375 3.390625 
Q 49.421875 2.09375 52.390625 1.765625 
L 52.390625 0 
L 33.796875 0 
L 33.796875 6.109375 
Q 30.515625 2.203125 27.234375 0.40625 
Q 23.96875 -1.375 19.921875 -1.375 
Q 16.0625 -1.375 13.0625 1 
Q 10.0625 3.375 9.03125 6.546875 
Q 8.015625 9.71875 8.015625 17.625 
L 8.015625 35.75 
Q 8.015625 40.921875 7.0625 42.1875 
Q 6.109375 43.453125 3.078125 43.84375 
L 3.078125 45.65625 
L 21.6875 45.65625 
L 21.6875 14.453125 
Q 21.6875 9.578125 22.140625 8.15625 
Q 22.609375 6.734375 23.609375 6 
Q 24.609375 5.28125 25.921875 5.28125 
Q 27.6875 5.28125 29.109375 6.203125 
Q 31.0625 7.46875 33.796875 11.328125 
L 33.796875 35.75 
Q 33.796875 40.921875 32.84375 42.1875 
Q 31.890625 43.453125 28.859375 43.84375 
L 28.859375 45.65625 
z
" id="TimesNewRomanPS-BoldMT-117"/>
      <path d="M 22.3125 45.65625 
L 22.3125 39.65625 
Q 26.078125 43.75 29.265625 45.375 
Q 32.46875 47.015625 36.28125 47.015625 
Q 40.671875 47.015625 43.640625 44.96875 
Q 46.625 42.921875 48.25 38.71875 
Q 52.15625 43.109375 55.734375 45.0625 
Q 59.328125 47.015625 63.234375 47.015625 
Q 67.96875 47.015625 70.765625 44.84375 
Q 73.578125 42.671875 74.671875 39.328125 
Q 75.78125 35.984375 75.78125 28.65625 
L 75.78125 9.96875 
Q 75.78125 4.6875 76.734375 3.421875 
Q 77.6875 2.15625 80.71875 1.765625 
L 80.71875 0 
L 57.125 0 
L 57.125 1.765625 
Q 59.90625 2 61.234375 3.90625 
Q 62.109375 5.21875 62.109375 9.96875 
L 62.109375 29.59375 
Q 62.109375 35.6875 61.625 37.34375 
Q 61.140625 39.015625 60.078125 39.8125 
Q 59.03125 40.625 57.625 40.625 
Q 55.515625 40.625 53.359375 39.078125 
Q 51.21875 37.546875 49.03125 34.46875 
L 49.03125 9.96875 
Q 49.03125 5.03125 49.859375 3.765625 
Q 50.984375 1.953125 54.15625 1.765625 
L 54.15625 0 
L 30.515625 0 
L 30.515625 1.765625 
Q 32.421875 1.859375 33.515625 2.703125 
Q 34.625 3.5625 34.984375 4.75 
Q 35.359375 5.953125 35.359375 9.96875 
L 35.359375 29.59375 
Q 35.359375 35.796875 34.859375 37.359375 
Q 34.375 38.921875 33.21875 39.796875 
Q 32.078125 40.671875 30.765625 40.671875 
Q 28.8125 40.671875 27.203125 39.65625 
Q 24.90625 38.140625 22.3125 34.46875 
L 22.3125 9.96875 
Q 22.3125 5.125 23.265625 3.578125 
Q 24.21875 2.046875 27.25 1.765625 
L 27.25 0 
L 3.71875 0 
L 3.71875 1.765625 
Q 6.59375 2.046875 7.8125 3.609375 
Q 8.640625 4.6875 8.640625 9.96875 
L 8.640625 35.75 
Q 8.640625 40.921875 7.6875 42.1875 
Q 6.734375 43.453125 3.71875 43.84375 
L 3.71875 45.65625 
z
" id="TimesNewRomanPS-BoldMT-109"/>
      <path d="M 21.046875 66.21875 
L 21.046875 41.0625 
Q 26.8125 47.015625 33.640625 47.015625 
Q 38.328125 47.015625 42.46875 44.25 
Q 46.625 41.5 48.96875 36.421875 
Q 51.3125 31.34375 51.3125 24.703125 
Q 51.3125 17.234375 48.328125 11.125 
Q 45.359375 5.03125 40.375 1.828125 
Q 35.40625 -1.375 29 -1.375 
Q 25.296875 -1.375 22.40625 -0.1875 
Q 19.53125 0.984375 16.75 3.609375 
L 9.1875 -1.3125 
L 7.515625 -1.3125 
L 7.515625 56.734375 
Q 7.515625 60.6875 7.171875 61.625 
Q 6.6875 62.984375 5.640625 63.640625 
Q 4.59375 64.3125 2.09375 64.40625 
L 2.09375 66.21875 
z
M 21.046875 36.71875 
L 21.046875 16.40625 
Q 21.046875 10.203125 21.34375 8.5 
Q 21.828125 5.609375 23.671875 3.828125 
Q 25.53125 2.046875 28.421875 2.046875 
Q 30.90625 2.046875 32.6875 3.46875 
Q 34.46875 4.890625 35.65625 9.078125 
Q 36.859375 13.28125 36.859375 24.21875 
Q 36.859375 34.71875 34.234375 38.625 
Q 32.328125 41.453125 29.109375 41.453125 
Q 24.90625 41.453125 21.046875 36.71875 
z
" id="TimesNewRomanPS-BoldMT-98"/>
      <path d="M 42.046875 24.46875 
L 17 24.46875 
Q 17.4375 15.375 21.828125 10.109375 
Q 25.203125 6.0625 29.9375 6.0625 
Q 32.859375 6.0625 35.25 7.6875 
Q 37.640625 9.328125 40.375 13.578125 
L 42.046875 12.5 
Q 38.328125 4.9375 33.828125 1.78125 
Q 29.34375 -1.375 23.4375 -1.375 
Q 13.28125 -1.375 8.0625 6.453125 
Q 3.859375 12.75 3.859375 22.078125 
Q 3.859375 33.5 10.03125 40.25 
Q 16.21875 47.015625 24.515625 47.015625 
Q 31.453125 47.015625 36.546875 41.328125 
Q 41.65625 35.640625 42.046875 24.46875 
z
M 30.03125 27.734375 
Q 30.03125 35.59375 29.171875 38.515625 
Q 28.328125 41.453125 26.515625 42.96875 
Q 25.484375 43.84375 23.78125 43.84375 
Q 21.234375 43.84375 19.625 41.359375 
Q 16.75 37.015625 16.75 29.4375 
L 16.75 27.734375 
z
" id="TimesNewRomanPS-BoldMT-101"/>
      <path d="M 22.3125 45.65625 
L 22.3125 35.296875 
Q 26.859375 42.390625 30.265625 44.703125 
Q 33.6875 47.015625 36.859375 47.015625 
Q 39.59375 47.015625 41.234375 45.328125 
Q 42.875 43.65625 42.875 40.578125 
Q 42.875 37.3125 41.28125 35.5 
Q 39.703125 33.6875 37.453125 33.6875 
Q 34.859375 33.6875 32.953125 35.34375 
Q 31.0625 37.015625 30.71875 37.203125 
Q 30.21875 37.5 29.59375 37.5 
Q 28.171875 37.5 26.90625 36.421875 
Q 24.90625 34.765625 23.875 31.6875 
Q 22.3125 26.953125 22.3125 21.234375 
L 22.3125 10.75 
L 22.359375 8.015625 
Q 22.359375 5.21875 22.703125 4.4375 
Q 23.296875 3.125 24.4375 2.515625 
Q 25.59375 1.90625 28.328125 1.765625 
L 28.328125 0 
L 3.65625 0 
L 3.65625 1.765625 
Q 6.640625 2 7.6875 3.390625 
Q 8.734375 4.78125 8.734375 10.75 
L 8.734375 35.984375 
Q 8.734375 39.890625 8.34375 40.96875 
Q 7.859375 42.328125 6.921875 42.96875 
Q 6 43.609375 3.65625 43.84375 
L 3.65625 45.65625 
z
" id="TimesNewRomanPS-BoldMT-114"/>
      <path id="TimesNewRomanPS-BoldMT-32"/>
      <path d="M 24.90625 47.015625 
Q 30.859375 47.015625 35.984375 43.9375 
Q 41.109375 40.875 43.765625 35.203125 
Q 46.4375 29.546875 46.4375 22.796875 
Q 46.4375 13.09375 41.5 6.546875 
Q 35.546875 -1.375 25.046875 -1.375 
Q 14.75 -1.375 9.171875 5.859375 
Q 3.609375 13.09375 3.609375 22.609375 
Q 3.609375 32.421875 9.296875 39.71875 
Q 14.984375 47.015625 24.90625 47.015625 
z
M 25.09375 43.5625 
Q 22.609375 43.5625 20.828125 41.671875 
Q 19.046875 39.796875 18.484375 34.25 
Q 17.921875 28.71875 17.921875 18.84375 
Q 17.921875 13.625 18.609375 9.078125 
Q 19.140625 5.609375 20.890625 3.796875 
Q 22.65625 2 24.90625 2 
Q 27.09375 2 28.5625 3.21875 
Q 30.46875 4.890625 31.109375 7.859375 
Q 32.078125 12.5 32.078125 26.609375 
Q 32.078125 34.90625 31.140625 38 
Q 30.21875 41.109375 28.421875 42.53125 
Q 27.15625 43.5625 25.09375 43.5625 
z
" id="TimesNewRomanPS-BoldMT-111"/>
      <path d="M 23.390625 40.875 
L 23.390625 9.1875 
Q 23.390625 4.59375 24.359375 3.421875 
Q 25.921875 1.609375 30.125 1.765625 
L 30.125 0 
L 3.21875 0 
L 3.21875 1.765625 
Q 6.296875 1.8125 7.59375 2.46875 
Q 8.890625 3.125 9.375 4.296875 
Q 9.859375 5.46875 9.859375 9.1875 
L 9.859375 40.875 
L 3.21875 40.875 
L 3.21875 45.65625 
L 9.859375 45.65625 
L 9.859375 49.03125 
L 9.8125 51.3125 
Q 9.8125 58.34375 14.96875 63.03125 
Q 20.125 67.71875 28.90625 67.71875 
Q 34.90625 67.71875 37.8125 65.46875 
Q 40.71875 63.234375 40.71875 60.5 
Q 40.71875 58.296875 38.90625 56.6875 
Q 37.109375 55.078125 34.125 55.078125 
Q 31.59375 55.078125 30.09375 56.390625 
Q 28.609375 57.71875 28.609375 59.328125 
Q 28.609375 59.765625 28.90625 61.140625 
Q 29.109375 61.96875 29.109375 62.703125 
Q 29.109375 63.71875 28.515625 64.203125 
Q 27.734375 64.9375 26.609375 64.9375 
Q 25.203125 64.9375 24.25 63.765625 
Q 23.296875 62.59375 23.296875 60.015625 
L 23.390625 51.46875 
L 23.390625 45.65625 
L 30.125 45.65625 
L 30.125 40.875 
z
" id="TimesNewRomanPS-BoldMT-102"/>
      <path d="M 21.046875 4.640625 
L 21.046875 -12.359375 
Q 21.046875 -15.875 21.609375 -17.140625 
Q 22.171875 -18.40625 23.34375 -18.984375 
Q 24.515625 -19.578125 27.9375 -19.578125 
L 27.9375 -21.390625 
L 1.90625 -21.390625 
L 1.90625 -19.578125 
Q 4.9375 -19.484375 6.390625 -17.875 
Q 7.375 -16.75 7.375 -12.0625 
L 7.375 36.140625 
Q 7.375 40.96875 6.25 42.3125 
Q 5.125 43.65625 1.90625 43.84375 
L 1.90625 45.65625 
L 21.046875 45.65625 
L 21.046875 39.65625 
Q 23.4375 43.171875 25.921875 44.734375 
Q 29.5 47.015625 33.6875 47.015625 
Q 38.71875 47.015625 42.84375 43.84375 
Q 46.96875 40.671875 49.109375 35.078125 
Q 51.265625 29.5 51.265625 23.046875 
Q 51.265625 16.109375 49.046875 10.375 
Q 46.828125 4.640625 42.59375 1.625 
Q 38.375 -1.375 33.203125 -1.375 
Q 29.4375 -1.375 26.171875 0.296875 
Q 23.734375 1.5625 21.046875 4.640625 
z
M 21.046875 9.578125 
Q 25.25 3.609375 30.03125 3.609375 
Q 32.671875 3.609375 34.375 6.390625 
Q 36.921875 10.5 36.921875 22.015625 
Q 36.921875 33.84375 34.125 38.1875 
Q 32.28125 41.0625 29.15625 41.0625 
Q 24.21875 41.0625 21.046875 33.9375 
z
" id="TimesNewRomanPS-BoldMT-112"/>
      <path d="M 28.5625 6.734375 
Q 20.21875 -0.640625 13.578125 -0.640625 
Q 9.671875 -0.640625 7.078125 1.921875 
Q 4.5 4.5 4.5 8.34375 
Q 4.5 13.578125 8.984375 17.75 
Q 13.484375 21.921875 28.5625 28.859375 
L 28.5625 33.453125 
Q 28.5625 38.625 28 39.96875 
Q 27.4375 41.3125 25.875 42.3125 
Q 24.3125 43.3125 22.359375 43.3125 
Q 19.1875 43.3125 17.140625 41.890625 
Q 15.875 41.015625 15.875 39.84375 
Q 15.875 38.8125 17.234375 37.3125 
Q 19.09375 35.203125 19.09375 33.25 
Q 19.09375 30.859375 17.3125 29.171875 
Q 15.53125 27.484375 12.640625 27.484375 
Q 9.578125 27.484375 7.5 29.34375 
Q 5.421875 31.203125 5.421875 33.6875 
Q 5.421875 37.203125 8.203125 40.40625 
Q 10.984375 43.609375 15.96875 45.3125 
Q 20.953125 47.015625 26.3125 47.015625 
Q 32.8125 47.015625 36.59375 44.25 
Q 40.375 41.5 41.5 38.28125 
Q 42.1875 36.234375 42.1875 28.859375 
L 42.1875 11.140625 
Q 42.1875 8.015625 42.421875 7.203125 
Q 42.671875 6.390625 43.15625 6 
Q 43.65625 5.609375 44.28125 5.609375 
Q 45.5625 5.609375 46.875 7.421875 
L 48.34375 6.25 
Q 45.90625 2.640625 43.28125 1 
Q 40.671875 -0.640625 37.359375 -0.640625 
Q 33.453125 -0.640625 31.25 1.1875 
Q 29.046875 3.03125 28.5625 6.734375 
z
M 28.5625 10.296875 
L 28.5625 25.59375 
Q 22.65625 22.125 19.78125 18.171875 
Q 17.875 15.53125 17.875 12.84375 
Q 17.875 10.59375 19.484375 8.890625 
Q 20.703125 7.5625 22.90625 7.5625 
Q 25.34375 7.5625 28.5625 10.296875 
z
" id="TimesNewRomanPS-BoldMT-97"/>
      <path d="M 21.484375 62.359375 
L 21.484375 45.65625 
L 32.328125 45.65625 
L 32.328125 40.828125 
L 21.484375 40.828125 
L 21.484375 12.640625 
Q 21.484375 8.6875 21.84375 7.53125 
Q 22.21875 6.390625 23.140625 5.6875 
Q 24.078125 4.984375 24.859375 4.984375 
Q 28.03125 4.984375 30.859375 9.8125 
L 32.328125 8.734375 
Q 28.375 -0.640625 19.484375 -0.640625 
Q 15.140625 -0.640625 12.125 1.78125 
Q 9.125 4.203125 8.296875 7.171875 
Q 7.8125 8.84375 7.8125 16.15625 
L 7.8125 40.828125 
L 1.859375 40.828125 
L 1.859375 42.53125 
Q 8.015625 46.875 12.328125 51.65625 
Q 16.65625 56.453125 19.875 62.359375 
z
" id="TimesNewRomanPS-BoldMT-116"/>
      <path d="M 14.359375 67.78125 
Q 17.53125 67.78125 19.71875 65.546875 
Q 21.921875 63.328125 21.921875 60.203125 
Q 21.921875 57.078125 19.703125 54.875 
Q 17.484375 52.6875 14.359375 52.6875 
Q 11.234375 52.6875 9.03125 54.875 
Q 6.84375 57.078125 6.84375 60.203125 
Q 6.84375 63.328125 9.03125 65.546875 
Q 11.234375 67.78125 14.359375 67.78125 
z
M 21.1875 45.65625 
L 21.1875 9.46875 
Q 21.1875 4.640625 22.3125 3.296875 
Q 23.4375 1.953125 26.703125 1.765625 
L 26.703125 0 
L 2.046875 0 
L 2.046875 1.765625 
Q 5.078125 1.859375 6.546875 3.515625 
Q 7.515625 4.640625 7.515625 9.46875 
L 7.515625 36.140625 
Q 7.515625 40.96875 6.390625 42.3125 
Q 5.28125 43.65625 2.046875 43.84375 
L 2.046875 45.65625 
z
" id="TimesNewRomanPS-BoldMT-105"/>
      <path d="M 32.234375 46.921875 
L 32.953125 31.34375 
L 31.296875 31.34375 
Q 28.328125 38.28125 25.125 40.8125 
Q 21.921875 43.359375 18.75 43.359375 
Q 16.75 43.359375 15.328125 42.015625 
Q 13.921875 40.671875 13.921875 38.921875 
Q 13.921875 37.59375 14.890625 36.375 
Q 16.453125 34.375 23.625 29.515625 
Q 30.8125 24.65625 33.078125 21.265625 
Q 35.359375 17.875 35.359375 13.671875 
Q 35.359375 9.859375 33.453125 6.203125 
Q 31.546875 2.546875 28.078125 0.578125 
Q 24.609375 -1.375 20.40625 -1.375 
Q 17.140625 -1.375 11.671875 0.6875 
Q 10.203125 1.21875 9.671875 1.21875 
Q 8.0625 1.21875 6.984375 -1.21875 
L 5.375 -1.21875 
L 4.59375 15.1875 
L 6.25 15.1875 
Q 8.453125 8.734375 12.28125 5.515625 
Q 16.109375 2.296875 19.53125 2.296875 
Q 21.875 2.296875 23.359375 3.734375 
Q 24.859375 5.171875 24.859375 7.234375 
Q 24.859375 9.578125 23.390625 11.28125 
Q 21.921875 12.984375 16.84375 16.453125 
Q 9.375 21.625 7.171875 24.359375 
Q 3.953125 28.375 3.953125 33.203125 
Q 3.953125 38.484375 7.59375 42.75 
Q 11.234375 47.015625 18.109375 47.015625 
Q 21.828125 47.015625 25.296875 45.21875 
Q 26.609375 44.484375 27.4375 44.484375 
Q 28.328125 44.484375 28.859375 44.84375 
Q 29.390625 45.21875 30.5625 46.921875 
z
" id="TimesNewRomanPS-BoldMT-115"/>
      <path d="M 32.125 67.71875 
L 32.125 65.484375 
Q 27.046875 62.15625 24.65625 58.984375 
Q 21.34375 54.59375 19.484375 47.703125 
Q 17.140625 39.15625 17.140625 23.828125 
Q 17.140625 9.375 19.265625 1.359375 
Q 21.390625 -6.640625 25.046875 -11.578125 
Q 27.59375 -14.984375 32.125 -17.578125 
L 32.125 -20.015625 
Q 20.359375 -16.0625 12.171875 -3.875 
Q 4 8.296875 4 24.125 
Q 4 39.75 12.15625 51.78125 
Q 20.3125 63.8125 32.125 67.71875 
z
" id="TimesNewRomanPS-BoldMT-40"/>
      <path d="M 21.921875 66.21875 
L 21.921875 22.65625 
L 32.515625 33.0625 
Q 35.796875 36.234375 36.59375 37.640625 
Q 37.40625 39.0625 37.40625 40.375 
Q 37.40625 41.703125 36.328125 42.578125 
Q 35.25 43.453125 32.125 43.84375 
L 32.125 45.65625 
L 52.59375 45.65625 
L 52.59375 43.84375 
Q 49.65625 43.703125 47.453125 42.453125 
Q 45.265625 41.21875 38.875 34.96875 
L 33.890625 30.078125 
L 44.625 14.359375 
Q 51.125 4.78125 52.34375 3.609375 
Q 54 1.953125 56.546875 1.765625 
L 56.546875 0 
L 32.953125 0 
L 32.953125 1.765625 
Q 34.515625 1.765625 35.21875 2.34375 
Q 35.9375 2.9375 35.9375 3.609375 
Q 35.9375 4.734375 33.890625 7.765625 
L 24.859375 21 
L 21.921875 18.109375 
L 21.921875 9.90625 
Q 21.921875 4.6875 22.890625 3.390625 
Q 23.875 2.09375 26.90625 1.765625 
L 26.90625 0 
L 3.328125 0 
L 3.328125 1.765625 
Q 6.203125 2.046875 7.421875 3.609375 
Q 8.25 4.6875 8.25 9.90625 
L 8.25 56.296875 
Q 8.25 61.46875 7.296875 62.734375 
Q 6.34375 64.015625 3.328125 64.40625 
L 3.328125 66.21875 
z
" id="TimesNewRomanPS-BoldMT-107"/>
      <path d="M 1.21875 -20.015625 
L 1.21875 -17.78125 
Q 6.296875 -14.40625 8.6875 -11.234375 
Q 11.96875 -6.84375 13.875 0 
Q 16.21875 8.59375 16.21875 23.921875 
Q 16.21875 38.375 14.09375 46.359375 
Q 11.96875 54.34375 8.296875 59.28125 
Q 5.765625 62.703125 1.21875 65.28125 
L 1.21875 67.71875 
Q 12.984375 63.765625 21.15625 51.578125 
Q 29.34375 39.40625 29.34375 23.578125 
Q 29.34375 8.015625 21.15625 -4.015625 
Q 12.984375 -16.0625 1.21875 -20.015625 
z
" id="TimesNewRomanPS-BoldMT-41"/>
     </defs>
     <g transform="translate(50.684389 212.238875)scale(0.12 -0.12)">
      <use xlink:href="#TimesNewRomanPS-BoldMT-110"/>
      <use x="55.615234" xlink:href="#TimesNewRomanPS-BoldMT-117"/>
      <use x="111.230469" xlink:href="#TimesNewRomanPS-BoldMT-109"/>
      <use x="194.53125" xlink:href="#TimesNewRomanPS-BoldMT-98"/>
      <use x="250.146484" xlink:href="#TimesNewRomanPS-BoldMT-101"/>
      <use x="294.53125" xlink:href="#TimesNewRomanPS-BoldMT-114"/>
      <use x="338.900391" xlink:href="#TimesNewRomanPS-BoldMT-32"/>
      <use x="363.900391" xlink:href="#TimesNewRomanPS-BoldMT-111"/>
      <use x="413.900391" xlink:href="#TimesNewRomanPS-BoldMT-102"/>
      <use x="447.201172" xlink:href="#TimesNewRomanPS-BoldMT-32"/>
      <use x="472.201172" xlink:href="#TimesNewRomanPS-BoldMT-111"/>
      <use x="522.201172" xlink:href="#TimesNewRomanPS-BoldMT-112"/>
      <use x="577.816406" xlink:href="#TimesNewRomanPS-BoldMT-101"/>
      <use x="622.201172" xlink:href="#TimesNewRomanPS-BoldMT-114"/>
      <use x="666.585938" xlink:href="#TimesNewRomanPS-BoldMT-97"/>
      <use x="716.585938" xlink:href="#TimesNewRomanPS-BoldMT-116"/>
      <use x="749.886719" xlink:href="#TimesNewRomanPS-BoldMT-105"/>
      <use x="777.669922" xlink:href="#TimesNewRomanPS-BoldMT-111"/>
      <use x="827.669922" xlink:href="#TimesNewRomanPS-BoldMT-110"/>
      <use x="883.285156" xlink:href="#TimesNewRomanPS-BoldMT-115"/>
      <use x="922.201172" xlink:href="#TimesNewRomanPS-BoldMT-32"/>
      <use x="947.201172" xlink:href="#TimesNewRomanPS-BoldMT-40"/>
      <use x="980.501953" xlink:href="#TimesNewRomanPS-BoldMT-49"/>
      <use x="1030.501953" xlink:href="#TimesNewRomanPS-BoldMT-48"/>
      <use x="1080.501953" xlink:href="#TimesNewRomanPS-BoldMT-48"/>
      <use x="1130.501953" xlink:href="#TimesNewRomanPS-BoldMT-107"/>
      <use x="1186.117188" xlink:href="#TimesNewRomanPS-BoldMT-41"/>
     </g>
    </g>
   </g>
   <g id="matplotlib.axis_2">
    <g id="ytick_1">
     <g id="line2d_11">
      <path clip-path="url(#p705ddce113)" d="M 45 142.08191 
L 202.695652 142.08191 
" style="fill:none;stroke:#808080;stroke-dasharray:0.5,0.825;stroke-dashoffset:0;stroke-width:0.5;"/>
     </g>
     <g id="line2d_12">
      <defs>
       <path d="M 0 0 
L -3.5 0 
" id="mbb6a23aa2c" style="stroke:#000000;stroke-width:0.8;"/>
      </defs>
      <g>
       <use style="stroke:#000000;stroke-width:0.8;" x="45" xlink:href="#mbb6a23aa2c" y="142.08191"/>
      </g>
     </g>
     <g id="text_12">
      <!-- 1 -->
      <g transform="translate(32 146.055035)scale(0.12 -0.12)">
       <use xlink:href="#TimesNewRomanPS-BoldMT-49"/>
      </g>
     </g>
    </g>
    <g id="ytick_2">
     <g id="line2d_13">
      <path clip-path="url(#p705ddce113)" d="M 45 98.452286 
L 202.695652 98.452286 
" style="fill:none;stroke:#808080;stroke-dasharray:0.5,0.825;stroke-dashoffset:0;stroke-width:0.5;"/>
     </g>
     <g id="line2d_14">
      <g>
       <use style="stroke:#000000;stroke-width:0.8;" x="45" xlink:href="#mbb6a23aa2c" y="98.452286"/>
      </g>
     </g>
     <g id="text_13">
      <!-- 2 -->
      <g transform="translate(32 102.425411)scale(0.12 -0.12)">
       <use xlink:href="#TimesNewRomanPS-BoldMT-50"/>
      </g>
     </g>
    </g>
    <g id="ytick_3">
     <g id="line2d_15">
      <path clip-path="url(#p705ddce113)" d="M 45 54.822663 
L 202.695652 54.822663 
" style="fill:none;stroke:#808080;stroke-dasharray:0.5,0.825;stroke-dashoffset:0;stroke-width:0.5;"/>
     </g>
     <g id="line2d_16">
      <g>
       <use style="stroke:#000000;stroke-width:0.8;" x="45" xlink:href="#mbb6a23aa2c" y="54.822663"/>
      </g>
     </g>
     <g id="text_14">
      <!-- 3 -->
      <g transform="translate(32 58.795788)scale(0.12 -0.12)">
       <use xlink:href="#TimesNewRomanPS-BoldMT-51"/>
      </g>
     </g>
    </g>
    <g id="text_15">
     <!-- Excution time (s) -->
     <defs>
      <path d="M 27.25 62.40625 
L 27.25 35.453125 
L 28.5625 35.453125 
Q 34.859375 35.453125 37.6875 39.40625 
Q 40.53125 43.359375 41.3125 51.078125 
L 43.171875 51.078125 
L 43.171875 16.40625 
L 41.3125 16.40625 
Q 40.71875 22.078125 38.84375 25.6875 
Q 36.96875 29.296875 34.46875 30.53125 
Q 31.984375 31.78125 27.25 31.78125 
L 27.25 13.140625 
Q 27.25 7.671875 27.703125 6.4375 
Q 28.171875 5.21875 29.4375 4.4375 
Q 30.71875 3.65625 33.546875 3.65625 
L 37.5 3.65625 
Q 46.78125 3.65625 52.359375 7.953125 
Q 57.953125 12.25 60.40625 21.046875 
L 62.203125 21.046875 
L 59.234375 0 
L 2 0 
L 2 1.8125 
L 4.203125 1.8125 
Q 7.078125 1.8125 8.84375 2.828125 
Q 10.109375 3.515625 10.796875 5.171875 
Q 11.328125 6.34375 11.328125 11.328125 
L 11.328125 54.890625 
Q 11.328125 59.375 11.078125 60.40625 
Q 10.59375 62.109375 9.28125 63.03125 
Q 7.421875 64.40625 4.203125 64.40625 
L 2 64.40625 
L 2 66.21875 
L 57.421875 66.21875 
L 57.421875 46.625 
L 55.5625 46.625 
Q 54.15625 53.8125 51.59375 56.9375 
Q 49.03125 60.0625 44.34375 61.53125 
Q 41.609375 62.40625 34.078125 62.40625 
z
" id="TimesNewRomanPS-BoldMT-69"/>
      <path d="M 30.375 27.984375 
L 38.28125 12.9375 
Q 42.390625 5.078125 44.78125 2.984375 
Q 46.09375 1.859375 48.390625 1.765625 
L 48.390625 0 
L 22.953125 0 
L 22.953125 1.765625 
Q 25.921875 2 26.625 2.53125 
Q 27.34375 3.078125 27.34375 4 
Q 27.34375 5.375 25.78125 8.296875 
L 21.828125 15.71875 
L 18.453125 10.796875 
Q 16.15625 7.421875 15.875 6.78125 
Q 15.484375 5.859375 15.484375 5.125 
Q 15.484375 4 15.9375 3.234375 
Q 16.40625 2.484375 17.203125 2.125 
Q 18.015625 1.765625 20.171875 1.765625 
L 20.171875 0 
L 2.296875 0 
L 2.296875 1.765625 
Q 5.609375 1.765625 8.375 3.59375 
Q 11.140625 5.421875 16.40625 13.1875 
L 20.171875 18.75 
L 12.3125 33.296875 
Q 8.453125 40.4375 6.546875 42.046875 
Q 4.640625 43.65625 2.296875 43.84375 
L 2.296875 45.65625 
L 27.59375 45.65625 
L 27.59375 43.84375 
L 26.265625 43.796875 
L 23.734375 42.921875 
Q 23.34375 42.578125 23.34375 41.796875 
Q 23.34375 41.0625 23.578125 40.28125 
Q 23.734375 39.9375 24.953125 37.640625 
L 28.515625 31 
L 30.375 33.640625 
Q 34.28125 39.015625 34.28125 41.15625 
Q 34.28125 42.1875 33.421875 42.890625 
Q 32.5625 43.609375 30.375 43.84375 
L 30.375 45.65625 
L 46.53125 45.65625 
L 46.53125 43.84375 
Q 43.5625 43.75 40.96875 42.015625 
Q 38.375 40.28125 35.15625 35.296875 
z
" id="TimesNewRomanPS-BoldMT-120"/>
      <path d="M 40.625 11.765625 
L 42.140625 10.59375 
Q 38.921875 4.546875 34.109375 1.578125 
Q 29.296875 -1.375 23.875 -1.375 
Q 14.75 -1.375 9.28125 5.515625 
Q 3.8125 12.40625 3.8125 22.078125 
Q 3.8125 31.390625 8.796875 38.484375 
Q 14.796875 47.015625 25.34375 47.015625 
Q 32.421875 47.015625 36.59375 43.453125 
Q 40.765625 39.890625 40.765625 35.5 
Q 40.765625 32.71875 39.078125 31.046875 
Q 37.40625 29.390625 34.671875 29.390625 
Q 31.78125 29.390625 29.90625 31.296875 
Q 28.03125 33.203125 27.59375 38.09375 
Q 27.296875 41.15625 26.171875 42.390625 
Q 25.046875 43.609375 23.53125 43.609375 
Q 21.1875 43.609375 19.53125 41.109375 
Q 17 37.359375 17 29.59375 
Q 17 23.140625 19.046875 17.25 
Q 21.09375 11.375 24.65625 8.5 
Q 27.34375 6.390625 31 6.390625 
Q 33.40625 6.390625 35.546875 7.515625 
Q 37.703125 8.640625 40.625 11.765625 
z
" id="TimesNewRomanPS-BoldMT-99"/>
     </defs>
     <g transform="translate(25.433125 159.724312)rotate(-90)scale(0.12 -0.12)">
      <use xlink:href="#TimesNewRomanPS-BoldMT-69"/>
      <use x="66.699219" xlink:href="#TimesNewRomanPS-BoldMT-120"/>
      <use x="116.699219" xlink:href="#TimesNewRomanPS-BoldMT-99"/>
      <use x="161.083984" xlink:href="#TimesNewRomanPS-BoldMT-117"/>
      <use x="216.699219" xlink:href="#TimesNewRomanPS-BoldMT-116"/>
      <use x="250" xlink:href="#TimesNewRomanPS-BoldMT-105"/>
      <use x="277.783203" xlink:href="#TimesNewRomanPS-BoldMT-111"/>
      <use x="327.783203" xlink:href="#TimesNewRomanPS-BoldMT-110"/>
      <use x="383.398438" xlink:href="#TimesNewRomanPS-BoldMT-32"/>
      <use x="408.398438" xlink:href="#TimesNewRomanPS-BoldMT-116"/>
      <use x="441.699219" xlink:href="#TimesNewRomanPS-BoldMT-105"/>
      <use x="469.482422" xlink:href="#TimesNewRomanPS-BoldMT-109"/>
      <use x="552.783203" xlink:href="#TimesNewRomanPS-BoldMT-101"/>
      <use x="597.167969" xlink:href="#TimesNewRomanPS-BoldMT-32"/>
      <use x="622.167969" xlink:href="#TimesNewRomanPS-BoldMT-40"/>
      <use x="655.46875" xlink:href="#TimesNewRomanPS-BoldMT-115"/>
      <use x="694.384766" xlink:href="#TimesNewRomanPS-BoldMT-41"/>
     </g>
    </g>
   </g>
   <g id="line2d_17">
    <path clip-path="url(#p705ddce113)" d="M 52.167984 170.840834 
L 68.096838 157.703256 
L 84.025692 144.952084 
L 99.954545 132.235576 
L 115.883399 118.798743 
L 131.812253 106.080271 
L 147.741107 93.403139 
L 163.66996 80.779889 
L 179.598814 67.911768 
L 195.527668 55.584 
" style="fill:none;stroke:#000000;stroke-dasharray:5.55,2.4;stroke-dashoffset:0;stroke-width:1.5;"/>
    <defs>
     <path d="M 0 3 
C 0.795609 3 1.55874 2.683901 2.12132 2.12132 
C 2.683901 1.55874 3 0.795609 3 0 
C 3 -0.795609 2.683901 -1.55874 2.12132 -2.12132 
C 1.55874 -2.683901 0.795609 -3 0 -3 
C -0.795609 -3 -1.55874 -2.683901 -2.12132 -2.12132 
C -2.683901 -1.55874 -3 -0.795609 -3 0 
C -3 0.795609 -2.683901 1.55874 -2.12132 2.12132 
C -1.55874 2.683901 -0.795609 3 0 3 
z
" id="mdc7eb5d33d" style="stroke:#000000;"/>
    </defs>
    <g clip-path="url(#p705ddce113)">
     <use style="fill-opacity:0;stroke:#000000;" x="52.167984" xlink:href="#mdc7eb5d33d" y="170.840834"/>
     <use style="fill-opacity:0;stroke:#000000;" x="68.096838" xlink:href="#mdc7eb5d33d" y="157.703256"/>
     <use style="fill-opacity:0;stroke:#000000;" x="84.025692" xlink:href="#mdc7eb5d33d" y="144.952084"/>
     <use style="fill-opacity:0;stroke:#000000;" x="99.954545" xlink:href="#mdc7eb5d33d" y="132.235576"/>
     <use style="fill-opacity:0;stroke:#000000;" x="115.883399" xlink:href="#mdc7eb5d33d" y="118.798743"/>
     <use style="fill-opacity:0;stroke:#000000;" x="131.812253" xlink:href="#mdc7eb5d33d" y="106.080271"/>
     <use style="fill-opacity:0;stroke:#000000;" x="147.741107" xlink:href="#mdc7eb5d33d" y="93.403139"/>
     <use style="fill-opacity:0;stroke:#000000;" x="163.66996" xlink:href="#mdc7eb5d33d" y="80.779889"/>
     <use style="fill-opacity:0;stroke:#000000;" x="179.598814" xlink:href="#mdc7eb5d33d" y="67.911768"/>
     <use style="fill-opacity:0;stroke:#000000;" x="195.527668" xlink:href="#mdc7eb5d33d" y="55.584"/>
    </g>
   </g>
   <g id="line2d_18">
    <path clip-path="url(#p705ddce113)" d="M 52.167984 174.82448 
L 68.096838 166.006988 
L 84.025692 157.187729 
L 99.954545 148.40778 
L 115.883399 140.142137 
L 131.812253 130.975553 
L 147.741107 123.74656 
L 163.66996 113.647502 
L 179.598814 105.129909 
L 195.527668 97.855978 
" style="fill:none;stroke:#000000;stroke-dasharray:5.55,2.4;stroke-dashoffset:0;stroke-width:1.5;"/>
    <defs>
     <path d="M -0 3 
L 3 -3 
L -3 -3 
z
" id="med9fd378a5" style="stroke:#000000;stroke-linejoin:miter;"/>
    </defs>
    <g clip-path="url(#p705ddce113)">
     <use style="fill-opacity:0;stroke:#000000;stroke-linejoin:miter;" x="52.167984" xlink:href="#med9fd378a5" y="174.82448"/>
     <use style="fill-opacity:0;stroke:#000000;stroke-linejoin:miter;" x="68.096838" xlink:href="#med9fd378a5" y="166.006988"/>
     <use style="fill-opacity:0;stroke:#000000;stroke-linejoin:miter;" x="84.025692" xlink:href="#med9fd378a5" y="157.187729"/>
     <use style="fill-opacity:0;stroke:#000000;stroke-linejoin:miter;" x="99.954545" xlink:href="#med9fd378a5" y="148.40778"/>
     <use style="fill-opacity:0;stroke:#000000;stroke-linejoin:miter;" x="115.883399" xlink:href="#med9fd378a5" y="140.142137"/>
     <use style="fill-opacity:0;stroke:#000000;stroke-linejoin:miter;" x="131.812253" xlink:href="#med9fd378a5" y="130.975553"/>
     <use style="fill-opacity:0;stroke:#000000;stroke-linejoin:miter;" x="147.741107" xlink:href="#med9fd378a5" y="123.74656"/>
     <use style="fill-opacity:0;stroke:#000000;stroke-linejoin:miter;" x="163.66996" xlink:href="#med9fd378a5" y="113.647502"/>
     <use style="fill-opacity:0;stroke:#000000;stroke-linejoin:miter;" x="179.598814" xlink:href="#med9fd378a5" y="105.129909"/>
     <use style="fill-opacity:0;stroke:#000000;stroke-linejoin:miter;" x="195.527668" xlink:href="#med9fd378a5" y="97.855978"/>
    </g>
   </g>
   <g id="line2d_19">
    <path clip-path="url(#p705ddce113)" d="M 52.167984 176.544 
L 68.096838 168.868229 
L 84.025692 161.133788 
L 99.954545 153.47764 
L 115.883399 145.882846 
L 131.812253 138.081946 
L 147.741107 130.676472 
L 163.66996 123.707185 
L 179.598814 116.132428 
L 195.527668 109.367327 
" style="fill:none;stroke:#0000ff;stroke-linecap:square;stroke-width:1.5;"/>
    <defs>
     <path d="M -3 3 
L 3 3 
L 3 -3 
L -3 -3 
z
" id="m202a6a3d4d" style="stroke:#0000ff;stroke-linejoin:miter;"/>
    </defs>
    <g clip-path="url(#p705ddce113)">
     <use style="fill:#0000ff;stroke:#0000ff;stroke-linejoin:miter;" x="52.167984" xlink:href="#m202a6a3d4d" y="176.544"/>
     <use style="fill:#0000ff;stroke:#0000ff;stroke-linejoin:miter;" x="68.096838" xlink:href="#m202a6a3d4d" y="168.868229"/>
     <use style="fill:#0000ff;stroke:#0000ff;stroke-linejoin:miter;" x="84.025692" xlink:href="#m202a6a3d4d" y="161.133788"/>
     <use style="fill:#0000ff;stroke:#0000ff;stroke-linejoin:miter;" x="99.954545" xlink:href="#m202a6a3d4d" y="153.47764"/>
     <use style="fill:#0000ff;stroke:#0000ff;stroke-linejoin:miter;" x="115.883399" xlink:href="#m202a6a3d4d" y="145.882846"/>
     <use style="fill:#0000ff;stroke:#0000ff;stroke-linejoin:miter;" x="131.812253" xlink:href="#m202a6a3d4d" y="138.081946"/>
     <use style="fill:#0000ff;stroke:#0000ff;stroke-linejoin:miter;" x="147.741107" xlink:href="#m202a6a3d4d" y="130.676472"/>
     <use style="fill:#0000ff;stroke:#0000ff;stroke-linejoin:miter;" x="163.66996" xlink:href="#m202a6a3d4d" y="123.707185"/>
     <use style="fill:#0000ff;stroke:#0000ff;stroke-linejoin:miter;" x="179.598814" xlink:href="#m202a6a3d4d" y="116.132428"/>
     <use style="fill:#0000ff;stroke:#0000ff;stroke-linejoin:miter;" x="195.527668" xlink:href="#m202a6a3d4d" y="109.367327"/>
    </g>
   </g>
   <g id="patch_3">
    <path d="M 45 182.592 
L 45 49.536 
" style="fill:none;stroke:#000000;stroke-linecap:square;stroke-linejoin:miter;stroke-width:0.8;"/>
   </g>
   <g id="patch_4">
    <path d="M 202.695652 182.592 
L 202.695652 49.536 
" style="fill:none;stroke:#000000;stroke-linecap:square;stroke-linejoin:miter;stroke-width:0.8;"/>
   </g>
   <g id="patch_5">
    <path d="M 45 182.592 
L 202.695652 182.592 
" style="fill:none;stroke:#000000;stroke-linecap:square;stroke-linejoin:miter;stroke-width:0.8;"/>
   </g>
   <g id="patch_6">
    <path d="M 45 49.536 
L 202.695652 49.536 
" style="fill:none;stroke:#000000;stroke-linecap:square;stroke-linejoin:miter;stroke-width:0.8;"/>
   </g>
   <g id="text_16">
    <!-- (a).lookup -->
    <defs>
     <path d="M 12.5 15.046875 
Q 15.921875 15.046875 18.28125 12.640625 
Q 20.65625 10.25 20.65625 6.890625 
Q 20.65625 3.515625 18.265625 1.140625 
Q 15.875 -1.21875 12.5 -1.21875 
Q 9.125 -1.21875 6.75 1.140625 
Q 4.390625 3.515625 4.390625 6.890625 
Q 4.390625 10.25 6.75 12.640625 
Q 9.125 15.046875 12.5 15.046875 
z
" id="TimesNewRomanPS-BoldMT-46"/>
     <path d="M 21.234375 66.21875 
L 21.234375 9.46875 
Q 21.234375 4.640625 22.359375 3.296875 
Q 23.484375 1.953125 26.765625 1.765625 
L 26.765625 0 
L 2.09375 0 
L 2.09375 1.765625 
Q 5.125 1.859375 6.59375 3.515625 
Q 7.5625 4.640625 7.5625 9.46875 
L 7.5625 56.734375 
Q 7.5625 61.53125 6.4375 62.859375 
Q 5.328125 64.203125 2.09375 64.40625 
L 2.09375 66.21875 
z
" id="TimesNewRomanPS-BoldMT-108"/>
    </defs>
    <g transform="translate(97.675639 43.536)scale(0.12 -0.12)">
     <use xlink:href="#TimesNewRomanPS-BoldMT-40"/>
     <use x="33.300781" xlink:href="#TimesNewRomanPS-BoldMT-97"/>
     <use x="83.300781" xlink:href="#TimesNewRomanPS-BoldMT-41"/>
     <use x="116.601562" xlink:href="#TimesNewRomanPS-BoldMT-46"/>
     <use x="141.601562" xlink:href="#TimesNewRomanPS-BoldMT-108"/>
     <use x="169.384766" xlink:href="#TimesNewRomanPS-BoldMT-111"/>
     <use x="219.384766" xlink:href="#TimesNewRomanPS-BoldMT-111"/>
     <use x="269.384766" xlink:href="#TimesNewRomanPS-BoldMT-107"/>
     <use x="325" xlink:href="#TimesNewRomanPS-BoldMT-117"/>
     <use x="380.615234" xlink:href="#TimesNewRomanPS-BoldMT-112"/>
    </g>
   </g>
  </g>
  <g id="axes_2">
   <g id="patch_7">
    <path d="M 234.234783 182.592 
L 391.930435 182.592 
L 391.930435 49.536 
L 234.234783 49.536 
z
" style="fill:#ffffff;"/>
   </g>
   <g id="matplotlib.axis_3">
    <g id="xtick_11">
     <g id="line2d_20">
      <g>
       <use style="stroke:#000000;stroke-width:0.8;" x="241.402767" xlink:href="#m19757bad77" y="182.592"/>
      </g>
     </g>
     <g id="text_17">
      <!-- 1 -->
      <g transform="translate(238.402767 197.53825)scale(0.12 -0.12)">
       <use xlink:href="#TimesNewRomanPS-BoldMT-49"/>
      </g>
     </g>
    </g>
    <g id="xtick_12">
     <g id="line2d_21">
      <g>
       <use style="stroke:#000000;stroke-width:0.8;" x="257.331621" xlink:href="#m19757bad77" y="182.592"/>
      </g>
     </g>
     <g id="text_18">
      <!-- 2 -->
      <g transform="translate(254.331621 197.53825)scale(0.12 -0.12)">
       <use xlink:href="#TimesNewRomanPS-BoldMT-50"/>
      </g>
     </g>
    </g>
    <g id="xtick_13">
     <g id="line2d_22">
      <g>
       <use style="stroke:#000000;stroke-width:0.8;" x="273.260474" xlink:href="#m19757bad77" y="182.592"/>
      </g>
     </g>
     <g id="text_19">
      <!-- 3 -->
      <g transform="translate(270.260474 197.53825)scale(0.12 -0.12)">
       <use xlink:href="#TimesNewRomanPS-BoldMT-51"/>
      </g>
     </g>
    </g>
    <g id="xtick_14">
     <g id="line2d_23">
      <g>
       <use style="stroke:#000000;stroke-width:0.8;" x="289.189328" xlink:href="#m19757bad77" y="182.592"/>
      </g>
     </g>
     <g id="text_20">
      <!-- 4 -->
      <g transform="translate(286.189328 197.53825)scale(0.12 -0.12)">
       <use xlink:href="#TimesNewRomanPS-BoldMT-52"/>
      </g>
     </g>
    </g>
    <g id="xtick_15">
     <g id="line2d_24">
      <g>
       <use style="stroke:#000000;stroke-width:0.8;" x="305.118182" xlink:href="#m19757bad77" y="182.592"/>
      </g>
     </g>
     <g id="text_21">
      <!-- 5 -->
      <g transform="translate(302.118182 197.53825)scale(0.12 -0.12)">
       <use xlink:href="#TimesNewRomanPS-BoldMT-53"/>
      </g>
     </g>
    </g>
    <g id="xtick_16">
     <g id="line2d_25">
      <g>
       <use style="stroke:#000000;stroke-width:0.8;" x="321.047036" xlink:href="#m19757bad77" y="182.592"/>
      </g>
     </g>
     <g id="text_22">
      <!-- 6 -->
      <g transform="translate(318.047036 197.53825)scale(0.12 -0.12)">
       <use xlink:href="#TimesNewRomanPS-BoldMT-54"/>
      </g>
     </g>
    </g>
    <g id="xtick_17">
     <g id="line2d_26">
      <g>
       <use style="stroke:#000000;stroke-width:0.8;" x="336.975889" xlink:href="#m19757bad77" y="182.592"/>
      </g>
     </g>
     <g id="text_23">
      <!-- 7 -->
      <g transform="translate(333.975889 197.53825)scale(0.12 -0.12)">
       <use xlink:href="#TimesNewRomanPS-BoldMT-55"/>
      </g>
     </g>
    </g>
    <g id="xtick_18">
     <g id="line2d_27">
      <g>
       <use style="stroke:#000000;stroke-width:0.8;" x="352.904743" xlink:href="#m19757bad77" y="182.592"/>
      </g>
     </g>
     <g id="text_24">
      <!-- 8 -->
      <g transform="translate(349.904743 197.53825)scale(0.12 -0.12)">
       <use xlink:href="#TimesNewRomanPS-BoldMT-56"/>
      </g>
     </g>
    </g>
    <g id="xtick_19">
     <g id="line2d_28">
      <g>
       <use style="stroke:#000000;stroke-width:0.8;" x="368.833597" xlink:href="#m19757bad77" y="182.592"/>
      </g>
     </g>
     <g id="text_25">
      <!-- 9 -->
      <g transform="translate(365.833597 197.53825)scale(0.12 -0.12)">
       <use xlink:href="#TimesNewRomanPS-BoldMT-57"/>
      </g>
     </g>
    </g>
    <g id="xtick_20">
     <g id="line2d_29">
      <g>
       <use style="stroke:#000000;stroke-width:0.8;" x="384.762451" xlink:href="#m19757bad77" y="182.592"/>
      </g>
     </g>
     <g id="text_26">
      <!-- 10 -->
      <g transform="translate(378.762451 197.53825)scale(0.12 -0.12)">
       <use xlink:href="#TimesNewRomanPS-BoldMT-49"/>
       <use x="50" xlink:href="#TimesNewRomanPS-BoldMT-48"/>
      </g>
     </g>
    </g>
    <g id="text_27">
     <!-- number of operations (100k) -->
     <g transform="translate(239.919171 212.238875)scale(0.12 -0.12)">
      <use xlink:href="#TimesNewRomanPS-BoldMT-110"/>
      <use x="55.615234" xlink:href="#TimesNewRomanPS-BoldMT-117"/>
      <use x="111.230469" xlink:href="#TimesNewRomanPS-BoldMT-109"/>
      <use x="194.53125" xlink:href="#TimesNewRomanPS-BoldMT-98"/>
      <use x="250.146484" xlink:href="#TimesNewRomanPS-BoldMT-101"/>
      <use x="294.53125" xlink:href="#TimesNewRomanPS-BoldMT-114"/>
      <use x="338.900391" xlink:href="#TimesNewRomanPS-BoldMT-32"/>
      <use x="363.900391" xlink:href="#TimesNewRomanPS-BoldMT-111"/>
      <use x="413.900391" xlink:href="#TimesNewRomanPS-BoldMT-102"/>
      <use x="447.201172" xlink:href="#TimesNewRomanPS-BoldMT-32"/>
      <use x="472.201172" xlink:href="#TimesNewRomanPS-BoldMT-111"/>
      <use x="522.201172" xlink:href="#TimesNewRomanPS-BoldMT-112"/>
      <use x="577.816406" xlink:href="#TimesNewRomanPS-BoldMT-101"/>
      <use x="622.201172" xlink:href="#TimesNewRomanPS-BoldMT-114"/>
      <use x="666.585938" xlink:href="#TimesNewRomanPS-BoldMT-97"/>
      <use x="716.585938" xlink:href="#TimesNewRomanPS-BoldMT-116"/>
      <use x="749.886719" xlink:href="#TimesNewRomanPS-BoldMT-105"/>
      <use x="777.669922" xlink:href="#TimesNewRomanPS-BoldMT-111"/>
      <use x="827.669922" xlink:href="#TimesNewRomanPS-BoldMT-110"/>
      <use x="883.285156" xlink:href="#TimesNewRomanPS-BoldMT-115"/>
      <use x="922.201172" xlink:href="#TimesNewRomanPS-BoldMT-32"/>
      <use x="947.201172" xlink:href="#TimesNewRomanPS-BoldMT-40"/>
      <use x="980.501953" xlink:href="#TimesNewRomanPS-BoldMT-49"/>
      <use x="1030.501953" xlink:href="#TimesNewRomanPS-BoldMT-48"/>
      <use x="1080.501953" xlink:href="#TimesNewRomanPS-BoldMT-48"/>
      <use x="1130.501953" xlink:href="#TimesNewRomanPS-BoldMT-107"/>
      <use x="1186.117188" xlink:href="#TimesNewRomanPS-BoldMT-41"/>
     </g>
    </g>
   </g>
   <g id="matplotlib.axis_4">
    <g id="ytick_4">
     <g id="line2d_30">
      <path clip-path="url(#p9c98362bb4)" d="M 234.234783 142.08191 
L 391.930435 142.08191 
" style="fill:none;stroke:#808080;stroke-dasharray:0.5,0.825;stroke-dashoffset:0;stroke-width:0.5;"/>
     </g>
     <g id="line2d_31">
      <g>
       <use style="stroke:#000000;stroke-width:0.8;" x="234.234783" xlink:href="#mbb6a23aa2c" y="142.08191"/>
      </g>
     </g>
     <g id="text_28">
      <!-- 1 -->
      <g transform="translate(221.234783 146.055035)scale(0.12 -0.12)">
       <use xlink:href="#TimesNewRomanPS-BoldMT-49"/>
      </g>
     </g>
    </g>
    <g id="ytick_5">
     <g id="line2d_32">
      <path clip-path="url(#p9c98362bb4)" d="M 234.234783 98.452286 
L 391.930435 98.452286 
" style="fill:none;stroke:#808080;stroke-dasharray:0.5,0.825;stroke-dashoffset:0;stroke-width:0.5;"/>
     </g>
     <g id="line2d_33">
      <g>
       <use style="stroke:#000000;stroke-width:0.8;" x="234.234783" xlink:href="#mbb6a23aa2c" y="98.452286"/>
      </g>
     </g>
     <g id="text_29">
      <!-- 2 -->
      <g transform="translate(221.234783 102.425411)scale(0.12 -0.12)">
       <use xlink:href="#TimesNewRomanPS-BoldMT-50"/>
      </g>
     </g>
    </g>
    <g id="ytick_6">
     <g id="line2d_34">
      <path clip-path="url(#p9c98362bb4)" d="M 234.234783 54.822663 
L 391.930435 54.822663 
" style="fill:none;stroke:#808080;stroke-dasharray:0.5,0.825;stroke-dashoffset:0;stroke-width:0.5;"/>
     </g>
     <g id="line2d_35">
      <g>
       <use style="stroke:#000000;stroke-width:0.8;" x="234.234783" xlink:href="#mbb6a23aa2c" y="54.822663"/>
      </g>
     </g>
     <g id="text_30">
      <!-- 3 -->
      <g transform="translate(221.234783 58.795788)scale(0.12 -0.12)">
       <use xlink:href="#TimesNewRomanPS-BoldMT-51"/>
      </g>
     </g>
    </g>
   </g>
   <g id="line2d_36">
    <path clip-path="url(#p9c98362bb4)" d="M 241.402767 170.840834 
L 257.331621 157.703256 
L 273.260474 144.952084 
L 289.189328 132.235576 
L 305.118182 118.798743 
L 321.047036 106.080271 
L 336.975889 93.403139 
L 352.904743 80.779889 
L 368.833597 67.911768 
L 384.762451 55.584 
" style="fill:none;stroke:#000000;stroke-dasharray:5.55,2.4;stroke-dashoffset:0;stroke-width:1.5;"/>
    <g clip-path="url(#p9c98362bb4)">
     <use style="fill-opacity:0;stroke:#000000;" x="241.402767" xlink:href="#mdc7eb5d33d" y="170.840834"/>
     <use style="fill-opacity:0;stroke:#000000;" x="257.331621" xlink:href="#mdc7eb5d33d" y="157.703256"/>
     <use style="fill-opacity:0;stroke:#000000;" x="273.260474" xlink:href="#mdc7eb5d33d" y="144.952084"/>
     <use style="fill-opacity:0;stroke:#000000;" x="289.189328" xlink:href="#mdc7eb5d33d" y="132.235576"/>
     <use style="fill-opacity:0;stroke:#000000;" x="305.118182" xlink:href="#mdc7eb5d33d" y="118.798743"/>
     <use style="fill-opacity:0;stroke:#000000;" x="321.047036" xlink:href="#mdc7eb5d33d" y="106.080271"/>
     <use style="fill-opacity:0;stroke:#000000;" x="336.975889" xlink:href="#mdc7eb5d33d" y="93.403139"/>
     <use style="fill-opacity:0;stroke:#000000;" x="352.904743" xlink:href="#mdc7eb5d33d" y="80.779889"/>
     <use style="fill-opacity:0;stroke:#000000;" x="368.833597" xlink:href="#mdc7eb5d33d" y="67.911768"/>
     <use style="fill-opacity:0;stroke:#000000;" x="384.762451" xlink:href="#mdc7eb5d33d" y="55.584"/>
    </g>
   </g>
   <g id="line2d_37">
    <path clip-path="url(#p9c98362bb4)" d="M 241.402767 174.82448 
L 257.331621 166.006988 
L 273.260474 157.187729 
L 289.189328 148.40778 
L 305.118182 140.142137 
L 321.047036 130.975553 
L 336.975889 123.74656 
L 352.904743 113.647502 
L 368.833597 105.129909 
L 384.762451 97.855978 
" style="fill:none;stroke:#000000;stroke-dasharray:5.55,2.4;stroke-dashoffset:0;stroke-width:1.5;"/>
    <g clip-path="url(#p9c98362bb4)">
     <use style="fill-opacity:0;stroke:#000000;stroke-linejoin:miter;" x="241.402767" xlink:href="#med9fd378a5" y="174.82448"/>
     <use style="fill-opacity:0;stroke:#000000;stroke-linejoin:miter;" x="257.331621" xlink:href="#med9fd378a5" y="166.006988"/>
     <use style="fill-opacity:0;stroke:#000000;stroke-linejoin:miter;" x="273.260474" xlink:href="#med9fd378a5" y="157.187729"/>
     <use style="fill-opacity:0;stroke:#000000;stroke-linejoin:miter;" x="289.189328" xlink:href="#med9fd378a5" y="148.40778"/>
     <use style="fill-opacity:0;stroke:#000000;stroke-linejoin:miter;" x="305.118182" xlink:href="#med9fd378a5" y="140.142137"/>
     <use style="fill-opacity:0;stroke:#000000;stroke-linejoin:miter;" x="321.047036" xlink:href="#med9fd378a5" y="130.975553"/>
     <use style="fill-opacity:0;stroke:#000000;stroke-linejoin:miter;" x="336.975889" xlink:href="#med9fd378a5" y="123.74656"/>
     <use style="fill-opacity:0;stroke:#000000;stroke-linejoin:miter;" x="352.904743" xlink:href="#med9fd378a5" y="113.647502"/>
     <use style="fill-opacity:0;stroke:#000000;stroke-linejoin:miter;" x="368.833597" xlink:href="#med9fd378a5" y="105.129909"/>
     <use style="fill-opacity:0;stroke:#000000;stroke-linejoin:miter;" x="384.762451" xlink:href="#med9fd378a5" y="97.855978"/>
    </g>
   </g>
   <g id="line2d_38">
    <path clip-path="url(#p9c98362bb4)" d="M 241.402767 176.544 
L 257.331621 168.868229 
L 273.260474 161.133788 
L 289.189328 153.47764 
L 305.118182 145.882846 
L 321.047036 138.081946 
L 336.975889 130.676472 
L 352.904743 123.707185 
L 368.833597 116.132428 
L 384.762451 109.367327 
" style="fill:none;stroke:#0000ff;stroke-linecap:square;stroke-width:1.5;"/>
    <g clip-path="url(#p9c98362bb4)">
     <use style="fill:#0000ff;stroke:#0000ff;stroke-linejoin:miter;" x="241.402767" xlink:href="#m202a6a3d4d" y="176.544"/>
     <use style="fill:#0000ff;stroke:#0000ff;stroke-linejoin:miter;" x="257.331621" xlink:href="#m202a6a3d4d" y="168.868229"/>
     <use style="fill:#0000ff;stroke:#0000ff;stroke-linejoin:miter;" x="273.260474" xlink:href="#m202a6a3d4d" y="161.133788"/>
     <use style="fill:#0000ff;stroke:#0000ff;stroke-linejoin:miter;" x="289.189328" xlink:href="#m202a6a3d4d" y="153.47764"/>
     <use style="fill:#0000ff;stroke:#0000ff;stroke-linejoin:miter;" x="305.118182" xlink:href="#m202a6a3d4d" y="145.882846"/>
     <use style="fill:#0000ff;stroke:#0000ff;stroke-linejoin:miter;" x="321.047036" xlink:href="#m202a6a3d4d" y="138.081946"/>
     <use style="fill:#0000ff;stroke:#0000ff;stroke-linejoin:miter;" x="336.975889" xlink:href="#m202a6a3d4d" y="130.676472"/>
     <use style="fill:#0000ff;stroke:#0000ff;stroke-linejoin:miter;" x="352.904743" xlink:href="#m202a6a3d4d" y="123.707185"/>
     <use style="fill:#0000ff;stroke:#0000ff;stroke-linejoin:miter;" x="368.833597" xlink:href="#m202a6a3d4d" y="116.132428"/>
     <use style="fill:#0000ff;stroke:#0000ff;stroke-linejoin:miter;" x="384.762451" xlink:href="#m202a6a3d4d" y="109.367327"/>
    </g>
   </g>
   <g id="patch_8">
    <path d="M 234.234783 182.592 
L 234.234783 49.536 
" style="fill:none;stroke:#000000;stroke-linecap:square;stroke-linejoin:miter;stroke-width:0.8;"/>
   </g>
   <g id="patch_9">
    <path d="M 391.930435 182.592 
L 391.930435 49.536 
" style="fill:none;stroke:#000000;stroke-linecap:square;stroke-linejoin:miter;stroke-width:0.8;"/>
   </g>
   <g id="patch_10">
    <path d="M 234.234783 182.592 
L 391.930435 182.592 
" style="fill:none;stroke:#000000;stroke-linecap:square;stroke-linejoin:miter;stroke-width:0.8;"/>
   </g>
   <g id="patch_11">
    <path d="M 234.234783 49.536 
L 391.930435 49.536 
" style="fill:none;stroke:#000000;stroke-linecap:square;stroke-linejoin:miter;stroke-width:0.8;"/>
   </g>
   <g id="text_31">
    <!-- (b).insert -->
    <g transform="translate(289.586984 43.536)scale(0.12 -0.12)">
     <use xlink:href="#TimesNewRomanPS-BoldMT-40"/>
     <use x="33.300781" xlink:href="#TimesNewRomanPS-BoldMT-98"/>
     <use x="88.916016" xlink:href="#TimesNewRomanPS-BoldMT-41"/>
     <use x="122.216797" xlink:href="#TimesNewRomanPS-BoldMT-46"/>
     <use x="147.216797" xlink:href="#TimesNewRomanPS-BoldMT-105"/>
     <use x="175" xlink:href="#TimesNewRomanPS-BoldMT-110"/>
     <use x="230.615234" xlink:href="#TimesNewRomanPS-BoldMT-115"/>
     <use x="269.53125" xlink:href="#TimesNewRomanPS-BoldMT-101"/>
     <use x="313.916016" xlink:href="#TimesNewRomanPS-BoldMT-114"/>
     <use x="358.300781" xlink:href="#TimesNewRomanPS-BoldMT-116"/>
    </g>
   </g>
  </g>
  <g id="axes_3">
   <g id="patch_12">
    <path d="M 423.469565 182.592 
L 581.165217 182.592 
L 581.165217 49.536 
L 423.469565 49.536 
z
" style="fill:#ffffff;"/>
   </g>
   <g id="matplotlib.axis_5">
    <g id="xtick_21">
     <g id="line2d_39">
      <g>
       <use style="stroke:#000000;stroke-width:0.8;" x="430.637549" xlink:href="#m19757bad77" y="182.592"/>
      </g>
     </g>
     <g id="text_32">
      <!-- 1 -->
      <g transform="translate(427.637549 197.53825)scale(0.12 -0.12)">
       <use xlink:href="#TimesNewRomanPS-BoldMT-49"/>
      </g>
     </g>
    </g>
    <g id="xtick_22">
     <g id="line2d_40">
      <g>
       <use style="stroke:#000000;stroke-width:0.8;" x="446.566403" xlink:href="#m19757bad77" y="182.592"/>
      </g>
     </g>
     <g id="text_33">
      <!-- 2 -->
      <g transform="translate(443.566403 197.53825)scale(0.12 -0.12)">
       <use xlink:href="#TimesNewRomanPS-BoldMT-50"/>
      </g>
     </g>
    </g>
    <g id="xtick_23">
     <g id="line2d_41">
      <g>
       <use style="stroke:#000000;stroke-width:0.8;" x="462.495257" xlink:href="#m19757bad77" y="182.592"/>
      </g>
     </g>
     <g id="text_34">
      <!-- 3 -->
      <g transform="translate(459.495257 197.53825)scale(0.12 -0.12)">
       <use xlink:href="#TimesNewRomanPS-BoldMT-51"/>
      </g>
     </g>
    </g>
    <g id="xtick_24">
     <g id="line2d_42">
      <g>
       <use style="stroke:#000000;stroke-width:0.8;" x="478.424111" xlink:href="#m19757bad77" y="182.592"/>
      </g>
     </g>
     <g id="text_35">
      <!-- 4 -->
      <g transform="translate(475.424111 197.53825)scale(0.12 -0.12)">
       <use xlink:href="#TimesNewRomanPS-BoldMT-52"/>
      </g>
     </g>
    </g>
    <g id="xtick_25">
     <g id="line2d_43">
      <g>
       <use style="stroke:#000000;stroke-width:0.8;" x="494.352964" xlink:href="#m19757bad77" y="182.592"/>
      </g>
     </g>
     <g id="text_36">
      <!-- 5 -->
      <g transform="translate(491.352964 197.53825)scale(0.12 -0.12)">
       <use xlink:href="#TimesNewRomanPS-BoldMT-53"/>
      </g>
     </g>
    </g>
    <g id="xtick_26">
     <g id="line2d_44">
      <g>
       <use style="stroke:#000000;stroke-width:0.8;" x="510.281818" xlink:href="#m19757bad77" y="182.592"/>
      </g>
     </g>
     <g id="text_37">
      <!-- 6 -->
      <g transform="translate(507.281818 197.53825)scale(0.12 -0.12)">
       <use xlink:href="#TimesNewRomanPS-BoldMT-54"/>
      </g>
     </g>
    </g>
    <g id="xtick_27">
     <g id="line2d_45">
      <g>
       <use style="stroke:#000000;stroke-width:0.8;" x="526.210672" xlink:href="#m19757bad77" y="182.592"/>
      </g>
     </g>
     <g id="text_38">
      <!-- 7 -->
      <g transform="translate(523.210672 197.53825)scale(0.12 -0.12)">
       <use xlink:href="#TimesNewRomanPS-BoldMT-55"/>
      </g>
     </g>
    </g>
    <g id="xtick_28">
     <g id="line2d_46">
      <g>
       <use style="stroke:#000000;stroke-width:0.8;" x="542.139526" xlink:href="#m19757bad77" y="182.592"/>
      </g>
     </g>
     <g id="text_39">
      <!-- 8 -->
      <g transform="translate(539.139526 197.53825)scale(0.12 -0.12)">
       <use xlink:href="#TimesNewRomanPS-BoldMT-56"/>
      </g>
     </g>
    </g>
    <g id="xtick_29">
     <g id="line2d_47">
      <g>
       <use style="stroke:#000000;stroke-width:0.8;" x="558.068379" xlink:href="#m19757bad77" y="182.592"/>
      </g>
     </g>
     <g id="text_40">
      <!-- 9 -->
      <g transform="translate(555.068379 197.53825)scale(0.12 -0.12)">
       <use xlink:href="#TimesNewRomanPS-BoldMT-57"/>
      </g>
     </g>
    </g>
    <g id="xtick_30">
     <g id="line2d_48">
      <g>
       <use style="stroke:#000000;stroke-width:0.8;" x="573.997233" xlink:href="#m19757bad77" y="182.592"/>
      </g>
     </g>
     <g id="text_41">
      <!-- 10 -->
      <g transform="translate(567.997233 197.53825)scale(0.12 -0.12)">
       <use xlink:href="#TimesNewRomanPS-BoldMT-49"/>
       <use x="50" xlink:href="#TimesNewRomanPS-BoldMT-48"/>
      </g>
     </g>
    </g>
    <g id="text_42">
     <!-- number of operations (100k) -->
     <g transform="translate(429.153954 212.238875)scale(0.12 -0.12)">
      <use xlink:href="#TimesNewRomanPS-BoldMT-110"/>
      <use x="55.615234" xlink:href="#TimesNewRomanPS-BoldMT-117"/>
      <use x="111.230469" xlink:href="#TimesNewRomanPS-BoldMT-109"/>
      <use x="194.53125" xlink:href="#TimesNewRomanPS-BoldMT-98"/>
      <use x="250.146484" xlink:href="#TimesNewRomanPS-BoldMT-101"/>
      <use x="294.53125" xlink:href="#TimesNewRomanPS-BoldMT-114"/>
      <use x="338.900391" xlink:href="#TimesNewRomanPS-BoldMT-32"/>
      <use x="363.900391" xlink:href="#TimesNewRomanPS-BoldMT-111"/>
      <use x="413.900391" xlink:href="#TimesNewRomanPS-BoldMT-102"/>
      <use x="447.201172" xlink:href="#TimesNewRomanPS-BoldMT-32"/>
      <use x="472.201172" xlink:href="#TimesNewRomanPS-BoldMT-111"/>
      <use x="522.201172" xlink:href="#TimesNewRomanPS-BoldMT-112"/>
      <use x="577.816406" xlink:href="#TimesNewRomanPS-BoldMT-101"/>
      <use x="622.201172" xlink:href="#TimesNewRomanPS-BoldMT-114"/>
      <use x="666.585938" xlink:href="#TimesNewRomanPS-BoldMT-97"/>
      <use x="716.585938" xlink:href="#TimesNewRomanPS-BoldMT-116"/>
      <use x="749.886719" xlink:href="#TimesNewRomanPS-BoldMT-105"/>
      <use x="777.669922" xlink:href="#TimesNewRomanPS-BoldMT-111"/>
      <use x="827.669922" xlink:href="#TimesNewRomanPS-BoldMT-110"/>
      <use x="883.285156" xlink:href="#TimesNewRomanPS-BoldMT-115"/>
      <use x="922.201172" xlink:href="#TimesNewRomanPS-BoldMT-32"/>
      <use x="947.201172" xlink:href="#TimesNewRomanPS-BoldMT-40"/>
      <use x="980.501953" xlink:href="#TimesNewRomanPS-BoldMT-49"/>
      <use x="1030.501953" xlink:href="#TimesNewRomanPS-BoldMT-48"/>
      <use x="1080.501953" xlink:href="#TimesNewRomanPS-BoldMT-48"/>
      <use x="1130.501953" xlink:href="#TimesNewRomanPS-BoldMT-107"/>
      <use x="1186.117188" xlink:href="#TimesNewRomanPS-BoldMT-41"/>
     </g>
    </g>
   </g>
   <g id="matplotlib.axis_6">
    <g id="ytick_7">
     <g id="line2d_49">
      <path clip-path="url(#p92887199ed)" d="M 423.469565 142.08191 
L 581.165217 142.08191 
" style="fill:none;stroke:#808080;stroke-dasharray:0.5,0.825;stroke-dashoffset:0;stroke-width:0.5;"/>
     </g>
     <g id="line2d_50">
      <g>
       <use style="stroke:#000000;stroke-width:0.8;" x="423.469565" xlink:href="#mbb6a23aa2c" y="142.08191"/>
      </g>
     </g>
     <g id="text_43">
      <!-- 1 -->
      <g transform="translate(410.469565 146.055035)scale(0.12 -0.12)">
       <use xlink:href="#TimesNewRomanPS-BoldMT-49"/>
      </g>
     </g>
    </g>
    <g id="ytick_8">
     <g id="line2d_51">
      <path clip-path="url(#p92887199ed)" d="M 423.469565 98.452286 
L 581.165217 98.452286 
" style="fill:none;stroke:#808080;stroke-dasharray:0.5,0.825;stroke-dashoffset:0;stroke-width:0.5;"/>
     </g>
     <g id="line2d_52">
      <g>
       <use style="stroke:#000000;stroke-width:0.8;" x="423.469565" xlink:href="#mbb6a23aa2c" y="98.452286"/>
      </g>
     </g>
     <g id="text_44">
      <!-- 2 -->
      <g transform="translate(410.469565 102.425411)scale(0.12 -0.12)">
       <use xlink:href="#TimesNewRomanPS-BoldMT-50"/>
      </g>
     </g>
    </g>
    <g id="ytick_9">
     <g id="line2d_53">
      <path clip-path="url(#p92887199ed)" d="M 423.469565 54.822663 
L 581.165217 54.822663 
" style="fill:none;stroke:#808080;stroke-dasharray:0.5,0.825;stroke-dashoffset:0;stroke-width:0.5;"/>
     </g>
     <g id="line2d_54">
      <g>
       <use style="stroke:#000000;stroke-width:0.8;" x="423.469565" xlink:href="#mbb6a23aa2c" y="54.822663"/>
      </g>
     </g>
     <g id="text_45">
      <!-- 3 -->
      <g transform="translate(410.469565 58.795788)scale(0.12 -0.12)">
       <use xlink:href="#TimesNewRomanPS-BoldMT-51"/>
      </g>
     </g>
    </g>
   </g>
   <g id="line2d_55">
    <path clip-path="url(#p92887199ed)" d="M 430.637549 170.840834 
L 446.566403 157.703256 
L 462.495257 144.952084 
L 478.424111 132.235576 
L 494.352964 118.798743 
L 510.281818 106.080271 
L 526.210672 93.403139 
L 542.139526 80.779889 
L 558.068379 67.911768 
L 573.997233 55.584 
" style="fill:none;stroke:#000000;stroke-dasharray:5.55,2.4;stroke-dashoffset:0;stroke-width:1.5;"/>
    <g clip-path="url(#p92887199ed)">
     <use style="fill-opacity:0;stroke:#000000;" x="430.637549" xlink:href="#mdc7eb5d33d" y="170.840834"/>
     <use style="fill-opacity:0;stroke:#000000;" x="446.566403" xlink:href="#mdc7eb5d33d" y="157.703256"/>
     <use style="fill-opacity:0;stroke:#000000;" x="462.495257" xlink:href="#mdc7eb5d33d" y="144.952084"/>
     <use style="fill-opacity:0;stroke:#000000;" x="478.424111" xlink:href="#mdc7eb5d33d" y="132.235576"/>
     <use style="fill-opacity:0;stroke:#000000;" x="494.352964" xlink:href="#mdc7eb5d33d" y="118.798743"/>
     <use style="fill-opacity:0;stroke:#000000;" x="510.281818" xlink:href="#mdc7eb5d33d" y="106.080271"/>
     <use style="fill-opacity:0;stroke:#000000;" x="526.210672" xlink:href="#mdc7eb5d33d" y="93.403139"/>
     <use style="fill-opacity:0;stroke:#000000;" x="542.139526" xlink:href="#mdc7eb5d33d" y="80.779889"/>
     <use style="fill-opacity:0;stroke:#000000;" x="558.068379" xlink:href="#mdc7eb5d33d" y="67.911768"/>
     <use style="fill-opacity:0;stroke:#000000;" x="573.997233" xlink:href="#mdc7eb5d33d" y="55.584"/>
    </g>
   </g>
   <g id="line2d_56">
    <path clip-path="url(#p92887199ed)" d="M 430.637549 174.82448 
L 446.566403 166.006988 
L 462.495257 157.187729 
L 478.424111 148.40778 
L 494.352964 140.142137 
L 510.281818 130.975553 
L 526.210672 123.74656 
L 542.139526 113.647502 
L 558.068379 105.129909 
L 573.997233 97.855978 
" style="fill:none;stroke:#000000;stroke-dasharray:5.55,2.4;stroke-dashoffset:0;stroke-width:1.5;"/>
    <g clip-path="url(#p92887199ed)">
     <use style="fill-opacity:0;stroke:#000000;stroke-linejoin:miter;" x="430.637549" xlink:href="#med9fd378a5" y="174.82448"/>
     <use style="fill-opacity:0;stroke:#000000;stroke-linejoin:miter;" x="446.566403" xlink:href="#med9fd378a5" y="166.006988"/>
     <use style="fill-opacity:0;stroke:#000000;stroke-linejoin:miter;" x="462.495257" xlink:href="#med9fd378a5" y="157.187729"/>
     <use style="fill-opacity:0;stroke:#000000;stroke-linejoin:miter;" x="478.424111" xlink:href="#med9fd378a5" y="148.40778"/>
     <use style="fill-opacity:0;stroke:#000000;stroke-linejoin:miter;" x="494.352964" xlink:href="#med9fd378a5" y="140.142137"/>
     <use style="fill-opacity:0;stroke:#000000;stroke-linejoin:miter;" x="510.281818" xlink:href="#med9fd378a5" y="130.975553"/>
     <use style="fill-opacity:0;stroke:#000000;stroke-linejoin:miter;" x="526.210672" xlink:href="#med9fd378a5" y="123.74656"/>
     <use style="fill-opacity:0;stroke:#000000;stroke-linejoin:miter;" x="542.139526" xlink:href="#med9fd378a5" y="113.647502"/>
     <use style="fill-opacity:0;stroke:#000000;stroke-linejoin:miter;" x="558.068379" xlink:href="#med9fd378a5" y="105.129909"/>
     <use style="fill-opacity:0;stroke:#000000;stroke-linejoin:miter;" x="573.997233" xlink:href="#med9fd378a5" y="97.855978"/>
    </g>
   </g>
   <g id="line2d_57">
    <path clip-path="url(#p92887199ed)" d="M 430.637549 176.544 
L 446.566403 168.868229 
L 462.495257 161.133788 
L 478.424111 153.47764 
L 494.352964 145.882846 
L 510.281818 138.081946 
L 526.210672 130.676472 
L 542.139526 123.707185 
L 558.068379 116.132428 
L 573.997233 109.367327 
" style="fill:none;stroke:#0000ff;stroke-linecap:square;stroke-width:1.5;"/>
    <g clip-path="url(#p92887199ed)">
     <use style="fill:#0000ff;stroke:#0000ff;stroke-linejoin:miter;" x="430.637549" xlink:href="#m202a6a3d4d" y="176.544"/>
     <use style="fill:#0000ff;stroke:#0000ff;stroke-linejoin:miter;" x="446.566403" xlink:href="#m202a6a3d4d" y="168.868229"/>
     <use style="fill:#0000ff;stroke:#0000ff;stroke-linejoin:miter;" x="462.495257" xlink:href="#m202a6a3d4d" y="161.133788"/>
     <use style="fill:#0000ff;stroke:#0000ff;stroke-linejoin:miter;" x="478.424111" xlink:href="#m202a6a3d4d" y="153.47764"/>
     <use style="fill:#0000ff;stroke:#0000ff;stroke-linejoin:miter;" x="494.352964" xlink:href="#m202a6a3d4d" y="145.882846"/>
     <use style="fill:#0000ff;stroke:#0000ff;stroke-linejoin:miter;" x="510.281818" xlink:href="#m202a6a3d4d" y="138.081946"/>
     <use style="fill:#0000ff;stroke:#0000ff;stroke-linejoin:miter;" x="526.210672" xlink:href="#m202a6a3d4d" y="130.676472"/>
     <use style="fill:#0000ff;stroke:#0000ff;stroke-linejoin:miter;" x="542.139526" xlink:href="#m202a6a3d4d" y="123.707185"/>
     <use style="fill:#0000ff;stroke:#0000ff;stroke-linejoin:miter;" x="558.068379" xlink:href="#m202a6a3d4d" y="116.132428"/>
     <use style="fill:#0000ff;stroke:#0000ff;stroke-linejoin:miter;" x="573.997233" xlink:href="#m202a6a3d4d" y="109.367327"/>
    </g>
   </g>
   <g id="patch_13">
    <path d="M 423.469565 182.592 
L 423.469565 49.536 
" style="fill:none;stroke:#000000;stroke-linecap:square;stroke-linejoin:miter;stroke-width:0.8;"/>
   </g>
   <g id="patch_14">
    <path d="M 581.165217 182.592 
L 581.165217 49.536 
" style="fill:none;stroke:#000000;stroke-linecap:square;stroke-linejoin:miter;stroke-width:0.8;"/>
   </g>
   <g id="patch_15">
    <path d="M 423.469565 182.592 
L 581.165217 182.592 
" style="fill:none;stroke:#000000;stroke-linecap:square;stroke-linejoin:miter;stroke-width:0.8;"/>
   </g>
   <g id="patch_16">
    <path d="M 423.469565 49.536 
L 581.165217 49.536 
" style="fill:none;stroke:#000000;stroke-linecap:square;stroke-linejoin:miter;stroke-width:0.8;"/>
   </g>
   <g id="text_46">
    <!-- (c).update -->
    <defs>
     <path d="M 47.75 66.21875 
L 47.75 13.671875 
Q 47.75 8.34375 48.046875 7.375 
Q 48.4375 5.765625 49.53125 4.984375 
Q 50.640625 4.203125 53.375 4 
L 53.375 2.390625 
L 34.078125 -1.375 
L 34.078125 5.859375 
Q 30.609375 1.65625 27.90625 0.140625 
Q 25.203125 -1.375 21.78125 -1.375 
Q 13.03125 -1.375 7.953125 6.453125 
Q 3.859375 12.796875 3.859375 22.015625 
Q 3.859375 29.390625 6.390625 35.21875 
Q 8.9375 41.0625 13.359375 44.03125 
Q 17.78125 47.015625 22.859375 47.015625 
Q 26.125 47.015625 28.65625 45.75 
Q 31.203125 44.484375 34.078125 41.3125 
L 34.078125 55.078125 
Q 34.078125 60.296875 33.640625 61.375 
Q 33.0625 62.796875 31.890625 63.46875 
Q 30.71875 64.15625 27.484375 64.15625 
L 27.484375 66.21875 
z
M 34.078125 35.25 
Q 30.46875 42.1875 25.25 42.1875 
Q 23.4375 42.1875 22.265625 41.21875 
Q 20.453125 39.703125 19.3125 35.890625 
Q 18.171875 32.078125 18.171875 24.21875 
Q 18.171875 15.578125 19.4375 11.421875 
Q 20.703125 7.28125 22.90625 5.421875 
Q 24.03125 4.5 25.984375 4.5 
Q 30.28125 4.5 34.078125 11.234375 
z
" id="TimesNewRomanPS-BoldMT-100"/>
    </defs>
    <g transform="translate(476.487391 43.536)scale(0.12 -0.12)">
     <use xlink:href="#TimesNewRomanPS-BoldMT-40"/>
     <use x="33.300781" xlink:href="#TimesNewRomanPS-BoldMT-99"/>
     <use x="77.685547" xlink:href="#TimesNewRomanPS-BoldMT-41"/>
     <use x="110.986328" xlink:href="#TimesNewRomanPS-BoldMT-46"/>
     <use x="135.986328" xlink:href="#TimesNewRomanPS-BoldMT-117"/>
     <use x="191.601562" xlink:href="#TimesNewRomanPS-BoldMT-112"/>
     <use x="247.216797" xlink:href="#TimesNewRomanPS-BoldMT-100"/>
     <use x="302.832031" xlink:href="#TimesNewRomanPS-BoldMT-97"/>
     <use x="352.832031" xlink:href="#TimesNewRomanPS-BoldMT-116"/>
     <use x="386.132812" xlink:href="#TimesNewRomanPS-BoldMT-101"/>
    </g>
   </g>
  </g>
  <g id="axes_4">
   <g id="patch_17">
    <path d="M 612.704348 182.592 
L 770.4 182.592 
L 770.4 49.536 
L 612.704348 49.536 
z
" style="fill:#ffffff;"/>
   </g>
   <g id="matplotlib.axis_7">
    <g id="xtick_31">
     <g id="line2d_58">
      <g>
       <use style="stroke:#000000;stroke-width:0.8;" x="619.872332" xlink:href="#m19757bad77" y="182.592"/>
      </g>
     </g>
     <g id="text_47">
      <!-- 1 -->
      <g transform="translate(616.872332 197.53825)scale(0.12 -0.12)">
       <use xlink:href="#TimesNewRomanPS-BoldMT-49"/>
      </g>
     </g>
    </g>
    <g id="xtick_32">
     <g id="line2d_59">
      <g>
       <use style="stroke:#000000;stroke-width:0.8;" x="635.801186" xlink:href="#m19757bad77" y="182.592"/>
      </g>
     </g>
     <g id="text_48">
      <!-- 2 -->
      <g transform="translate(632.801186 197.53825)scale(0.12 -0.12)">
       <use xlink:href="#TimesNewRomanPS-BoldMT-50"/>
      </g>
     </g>
    </g>
    <g id="xtick_33">
     <g id="line2d_60">
      <g>
       <use style="stroke:#000000;stroke-width:0.8;" x="651.73004" xlink:href="#m19757bad77" y="182.592"/>
      </g>
     </g>
     <g id="text_49">
      <!-- 3 -->
      <g transform="translate(648.73004 197.53825)scale(0.12 -0.12)">
       <use xlink:href="#TimesNewRomanPS-BoldMT-51"/>
      </g>
     </g>
    </g>
    <g id="xtick_34">
     <g id="line2d_61">
      <g>
       <use style="stroke:#000000;stroke-width:0.8;" x="667.658893" xlink:href="#m19757bad77" y="182.592"/>
      </g>
     </g>
     <g id="text_50">
      <!-- 4 -->
      <g transform="translate(664.658893 197.53825)scale(0.12 -0.12)">
       <use xlink:href="#TimesNewRomanPS-BoldMT-52"/>
      </g>
     </g>
    </g>
    <g id="xtick_35">
     <g id="line2d_62">
      <g>
       <use style="stroke:#000000;stroke-width:0.8;" x="683.587747" xlink:href="#m19757bad77" y="182.592"/>
      </g>
     </g>
     <g id="text_51">
      <!-- 5 -->
      <g transform="translate(680.587747 197.53825)scale(0.12 -0.12)">
       <use xlink:href="#TimesNewRomanPS-BoldMT-53"/>
      </g>
     </g>
    </g>
    <g id="xtick_36">
     <g id="line2d_63">
      <g>
       <use style="stroke:#000000;stroke-width:0.8;" x="699.516601" xlink:href="#m19757bad77" y="182.592"/>
      </g>
     </g>
     <g id="text_52">
      <!-- 6 -->
      <g transform="translate(696.516601 197.53825)scale(0.12 -0.12)">
       <use xlink:href="#TimesNewRomanPS-BoldMT-54"/>
      </g>
     </g>
    </g>
    <g id="xtick_37">
     <g id="line2d_64">
      <g>
       <use style="stroke:#000000;stroke-width:0.8;" x="715.445455" xlink:href="#m19757bad77" y="182.592"/>
      </g>
     </g>
     <g id="text_53">
      <!-- 7 -->
      <g transform="translate(712.445455 197.53825)scale(0.12 -0.12)">
       <use xlink:href="#TimesNewRomanPS-BoldMT-55"/>
      </g>
     </g>
    </g>
    <g id="xtick_38">
     <g id="line2d_65">
      <g>
       <use style="stroke:#000000;stroke-width:0.8;" x="731.374308" xlink:href="#m19757bad77" y="182.592"/>
      </g>
     </g>
     <g id="text_54">
      <!-- 8 -->
      <g transform="translate(728.374308 197.53825)scale(0.12 -0.12)">
       <use xlink:href="#TimesNewRomanPS-BoldMT-56"/>
      </g>
     </g>
    </g>
    <g id="xtick_39">
     <g id="line2d_66">
      <g>
       <use style="stroke:#000000;stroke-width:0.8;" x="747.303162" xlink:href="#m19757bad77" y="182.592"/>
      </g>
     </g>
     <g id="text_55">
      <!-- 9 -->
      <g transform="translate(744.303162 197.53825)scale(0.12 -0.12)">
       <use xlink:href="#TimesNewRomanPS-BoldMT-57"/>
      </g>
     </g>
    </g>
    <g id="xtick_40">
     <g id="line2d_67">
      <g>
       <use style="stroke:#000000;stroke-width:0.8;" x="763.232016" xlink:href="#m19757bad77" y="182.592"/>
      </g>
     </g>
     <g id="text_56">
      <!-- 10 -->
      <g transform="translate(757.232016 197.53825)scale(0.12 -0.12)">
       <use xlink:href="#TimesNewRomanPS-BoldMT-49"/>
       <use x="50" xlink:href="#TimesNewRomanPS-BoldMT-48"/>
      </g>
     </g>
    </g>
    <g id="text_57">
     <!-- number of operations (100k) -->
     <g transform="translate(618.388736 212.238875)scale(0.12 -0.12)">
      <use xlink:href="#TimesNewRomanPS-BoldMT-110"/>
      <use x="55.615234" xlink:href="#TimesNewRomanPS-BoldMT-117"/>
      <use x="111.230469" xlink:href="#TimesNewRomanPS-BoldMT-109"/>
      <use x="194.53125" xlink:href="#TimesNewRomanPS-BoldMT-98"/>
      <use x="250.146484" xlink:href="#TimesNewRomanPS-BoldMT-101"/>
      <use x="294.53125" xlink:href="#TimesNewRomanPS-BoldMT-114"/>
      <use x="338.900391" xlink:href="#TimesNewRomanPS-BoldMT-32"/>
      <use x="363.900391" xlink:href="#TimesNewRomanPS-BoldMT-111"/>
      <use x="413.900391" xlink:href="#TimesNewRomanPS-BoldMT-102"/>
      <use x="447.201172" xlink:href="#TimesNewRomanPS-BoldMT-32"/>
      <use x="472.201172" xlink:href="#TimesNewRomanPS-BoldMT-111"/>
      <use x="522.201172" xlink:href="#TimesNewRomanPS-BoldMT-112"/>
      <use x="577.816406" xlink:href="#TimesNewRomanPS-BoldMT-101"/>
      <use x="622.201172" xlink:href="#TimesNewRomanPS-BoldMT-114"/>
      <use x="666.585938" xlink:href="#TimesNewRomanPS-BoldMT-97"/>
      <use x="716.585938" xlink:href="#TimesNewRomanPS-BoldMT-116"/>
      <use x="749.886719" xlink:href="#TimesNewRomanPS-BoldMT-105"/>
      <use x="777.669922" xlink:href="#TimesNewRomanPS-BoldMT-111"/>
      <use x="827.669922" xlink:href="#TimesNewRomanPS-BoldMT-110"/>
      <use x="883.285156" xlink:href="#TimesNewRomanPS-BoldMT-115"/>
      <use x="922.201172" xlink:href="#TimesNewRomanPS-BoldMT-32"/>
      <use x="947.201172" xlink:href="#TimesNewRomanPS-BoldMT-40"/>
      <use x="980.501953" xlink:href="#TimesNewRomanPS-BoldMT-49"/>
      <use x="1030.501953" xlink:href="#TimesNewRomanPS-BoldMT-48"/>
      <use x="1080.501953" xlink:href="#TimesNewRomanPS-BoldMT-48"/>
      <use x="1130.501953" xlink:href="#TimesNewRomanPS-BoldMT-107"/>
      <use x="1186.117188" xlink:href="#TimesNewRomanPS-BoldMT-41"/>
     </g>
    </g>
   </g>
   <g id="matplotlib.axis_8">
    <g id="ytick_10">
     <g id="line2d_68">
      <path clip-path="url(#pe56acf913c)" d="M 612.704348 142.08191 
L 770.4 142.08191 
" style="fill:none;stroke:#808080;stroke-dasharray:0.5,0.825;stroke-dashoffset:0;stroke-width:0.5;"/>
     </g>
     <g id="line2d_69">
      <g>
       <use style="stroke:#000000;stroke-width:0.8;" x="612.704348" xlink:href="#mbb6a23aa2c" y="142.08191"/>
      </g>
     </g>
     <g id="text_58">
      <!-- 1 -->
      <g transform="translate(599.704348 146.055035)scale(0.12 -0.12)">
       <use xlink:href="#TimesNewRomanPS-BoldMT-49"/>
      </g>
     </g>
    </g>
    <g id="ytick_11">
     <g id="line2d_70">
      <path clip-path="url(#pe56acf913c)" d="M 612.704348 98.452286 
L 770.4 98.452286 
" style="fill:none;stroke:#808080;stroke-dasharray:0.5,0.825;stroke-dashoffset:0;stroke-width:0.5;"/>
     </g>
     <g id="line2d_71">
      <g>
       <use style="stroke:#000000;stroke-width:0.8;" x="612.704348" xlink:href="#mbb6a23aa2c" y="98.452286"/>
      </g>
     </g>
     <g id="text_59">
      <!-- 2 -->
      <g transform="translate(599.704348 102.425411)scale(0.12 -0.12)">
       <use xlink:href="#TimesNewRomanPS-BoldMT-50"/>
      </g>
     </g>
    </g>
    <g id="ytick_12">
     <g id="line2d_72">
      <path clip-path="url(#pe56acf913c)" d="M 612.704348 54.822663 
L 770.4 54.822663 
" style="fill:none;stroke:#808080;stroke-dasharray:0.5,0.825;stroke-dashoffset:0;stroke-width:0.5;"/>
     </g>
     <g id="line2d_73">
      <g>
       <use style="stroke:#000000;stroke-width:0.8;" x="612.704348" xlink:href="#mbb6a23aa2c" y="54.822663"/>
      </g>
     </g>
     <g id="text_60">
      <!-- 3 -->
      <g transform="translate(599.704348 58.795788)scale(0.12 -0.12)">
       <use xlink:href="#TimesNewRomanPS-BoldMT-51"/>
      </g>
     </g>
    </g>
   </g>
   <g id="line2d_74">
    <path clip-path="url(#pe56acf913c)" d="M 619.872332 170.840834 
L 635.801186 157.703256 
L 651.73004 144.952084 
L 667.658893 132.235576 
L 683.587747 118.798743 
L 699.516601 106.080271 
L 715.445455 93.403139 
L 731.374308 80.779889 
L 747.303162 67.911768 
L 763.232016 55.584 
" style="fill:none;stroke:#000000;stroke-dasharray:5.55,2.4;stroke-dashoffset:0;stroke-width:1.5;"/>
    <g clip-path="url(#pe56acf913c)">
     <use style="fill-opacity:0;stroke:#000000;" x="619.872332" xlink:href="#mdc7eb5d33d" y="170.840834"/>
     <use style="fill-opacity:0;stroke:#000000;" x="635.801186" xlink:href="#mdc7eb5d33d" y="157.703256"/>
     <use style="fill-opacity:0;stroke:#000000;" x="651.73004" xlink:href="#mdc7eb5d33d" y="144.952084"/>
     <use style="fill-opacity:0;stroke:#000000;" x="667.658893" xlink:href="#mdc7eb5d33d" y="132.235576"/>
     <use style="fill-opacity:0;stroke:#000000;" x="683.587747" xlink:href="#mdc7eb5d33d" y="118.798743"/>
     <use style="fill-opacity:0;stroke:#000000;" x="699.516601" xlink:href="#mdc7eb5d33d" y="106.080271"/>
     <use style="fill-opacity:0;stroke:#000000;" x="715.445455" xlink:href="#mdc7eb5d33d" y="93.403139"/>
     <use style="fill-opacity:0;stroke:#000000;" x="731.374308" xlink:href="#mdc7eb5d33d" y="80.779889"/>
     <use style="fill-opacity:0;stroke:#000000;" x="747.303162" xlink:href="#mdc7eb5d33d" y="67.911768"/>
     <use style="fill-opacity:0;stroke:#000000;" x="763.232016" xlink:href="#mdc7eb5d33d" y="55.584"/>
    </g>
   </g>
   <g id="line2d_75">
    <path clip-path="url(#pe56acf913c)" d="M 619.872332 174.82448 
L 635.801186 166.006988 
L 651.73004 157.187729 
L 667.658893 148.40778 
L 683.587747 140.142137 
L 699.516601 130.975553 
L 715.445455 123.74656 
L 731.374308 113.647502 
L 747.303162 105.129909 
L 763.232016 97.855978 
" style="fill:none;stroke:#000000;stroke-dasharray:5.55,2.4;stroke-dashoffset:0;stroke-width:1.5;"/>
    <g clip-path="url(#pe56acf913c)">
     <use style="fill-opacity:0;stroke:#000000;stroke-linejoin:miter;" x="619.872332" xlink:href="#med9fd378a5" y="174.82448"/>
     <use style="fill-opacity:0;stroke:#000000;stroke-linejoin:miter;" x="635.801186" xlink:href="#med9fd378a5" y="166.006988"/>
     <use style="fill-opacity:0;stroke:#000000;stroke-linejoin:miter;" x="651.73004" xlink:href="#med9fd378a5" y="157.187729"/>
     <use style="fill-opacity:0;stroke:#000000;stroke-linejoin:miter;" x="667.658893" xlink:href="#med9fd378a5" y="148.40778"/>
     <use style="fill-opacity:0;stroke:#000000;stroke-linejoin:miter;" x="683.587747" xlink:href="#med9fd378a5" y="140.142137"/>
     <use style="fill-opacity:0;stroke:#000000;stroke-linejoin:miter;" x="699.516601" xlink:href="#med9fd378a5" y="130.975553"/>
     <use style="fill-opacity:0;stroke:#000000;stroke-linejoin:miter;" x="715.445455" xlink:href="#med9fd378a5" y="123.74656"/>
     <use style="fill-opacity:0;stroke:#000000;stroke-linejoin:miter;" x="731.374308" xlink:href="#med9fd378a5" y="113.647502"/>
     <use style="fill-opacity:0;stroke:#000000;stroke-linejoin:miter;" x="747.303162" xlink:href="#med9fd378a5" y="105.129909"/>
     <use style="fill-opacity:0;stroke:#000000;stroke-linejoin:miter;" x="763.232016" xlink:href="#med9fd378a5" y="97.855978"/>
    </g>
   </g>
   <g id="line2d_76">
    <path clip-path="url(#pe56acf913c)" d="M 619.872332 176.544 
L 635.801186 168.868229 
L 651.73004 161.133788 
L 667.658893 153.47764 
L 683.587747 145.882846 
L 699.516601 138.081946 
L 715.445455 130.676472 
L 731.374308 123.707185 
L 747.303162 116.132428 
L 763.232016 109.367327 
" style="fill:none;stroke:#0000ff;stroke-linecap:square;stroke-width:1.5;"/>
    <g clip-path="url(#pe56acf913c)">
     <use style="fill:#0000ff;stroke:#0000ff;stroke-linejoin:miter;" x="619.872332" xlink:href="#m202a6a3d4d" y="176.544"/>
     <use style="fill:#0000ff;stroke:#0000ff;stroke-linejoin:miter;" x="635.801186" xlink:href="#m202a6a3d4d" y="168.868229"/>
     <use style="fill:#0000ff;stroke:#0000ff;stroke-linejoin:miter;" x="651.73004" xlink:href="#m202a6a3d4d" y="161.133788"/>
     <use style="fill:#0000ff;stroke:#0000ff;stroke-linejoin:miter;" x="667.658893" xlink:href="#m202a6a3d4d" y="153.47764"/>
     <use style="fill:#0000ff;stroke:#0000ff;stroke-linejoin:miter;" x="683.587747" xlink:href="#m202a6a3d4d" y="145.882846"/>
     <use style="fill:#0000ff;stroke:#0000ff;stroke-linejoin:miter;" x="699.516601" xlink:href="#m202a6a3d4d" y="138.081946"/>
     <use style="fill:#0000ff;stroke:#0000ff;stroke-linejoin:miter;" x="715.445455" xlink:href="#m202a6a3d4d" y="130.676472"/>
     <use style="fill:#0000ff;stroke:#0000ff;stroke-linejoin:miter;" x="731.374308" xlink:href="#m202a6a3d4d" y="123.707185"/>
     <use style="fill:#0000ff;stroke:#0000ff;stroke-linejoin:miter;" x="747.303162" xlink:href="#m202a6a3d4d" y="116.132428"/>
     <use style="fill:#0000ff;stroke:#0000ff;stroke-linejoin:miter;" x="763.232016" xlink:href="#m202a6a3d4d" y="109.367327"/>
    </g>
   </g>
   <g id="patch_18">
    <path d="M 612.704348 182.592 
L 612.704348 49.536 
" style="fill:none;stroke:#000000;stroke-linecap:square;stroke-linejoin:miter;stroke-width:0.8;"/>
   </g>
   <g id="patch_19">
    <path d="M 770.4 182.592 
L 770.4 49.536 
" style="fill:none;stroke:#000000;stroke-linecap:square;stroke-linejoin:miter;stroke-width:0.8;"/>
   </g>
   <g id="patch_20">
    <path d="M 612.704348 182.592 
L 770.4 182.592 
" style="fill:none;stroke:#000000;stroke-linecap:square;stroke-linejoin:miter;stroke-width:0.8;"/>
   </g>
   <g id="patch_21">
    <path d="M 612.704348 49.536 
L 770.4 49.536 
" style="fill:none;stroke:#000000;stroke-linecap:square;stroke-linejoin:miter;stroke-width:0.8;"/>
   </g>
   <g id="text_61">
    <!-- (d).delete -->
    <g transform="translate(667.728424 43.536)scale(0.12 -0.12)">
     <use xlink:href="#TimesNewRomanPS-BoldMT-40"/>
     <use x="33.300781" xlink:href="#TimesNewRomanPS-BoldMT-100"/>
     <use x="88.916016" xlink:href="#TimesNewRomanPS-BoldMT-41"/>
     <use x="122.216797" xlink:href="#TimesNewRomanPS-BoldMT-46"/>
     <use x="147.216797" xlink:href="#TimesNewRomanPS-BoldMT-100"/>
     <use x="202.832031" xlink:href="#TimesNewRomanPS-BoldMT-101"/>
     <use x="247.216797" xlink:href="#TimesNewRomanPS-BoldMT-108"/>
     <use x="275" xlink:href="#TimesNewRomanPS-BoldMT-101"/>
     <use x="319.384766" xlink:href="#TimesNewRomanPS-BoldMT-116"/>
     <use x="352.685547" xlink:href="#TimesNewRomanPS-BoldMT-101"/>
    </g>
   </g>
  </g>
  <g id="legend_1">
   <g id="patch_22">
    <path d="M 279.349687 29.446875 
L 534.970312 29.446875 
Q 537.370312 29.446875 537.370312 27.046875 
L 537.370312 11.28 
Q 537.370312 8.88 534.970312 8.88 
L 279.349687 8.88 
Q 276.949687 8.88 276.949687 11.28 
L 276.949687 27.046875 
Q 276.949687 29.446875 279.349687 29.446875 
z
" style="fill:#ffffff;opacity:0.8;stroke:#cccccc;stroke-linejoin:miter;"/>
   </g>
   <g id="line2d_77">
    <path d="M 281.749687 17.88 
L 305.749687 17.88 
" style="fill:none;stroke:#000000;stroke-dasharray:5.55,2.4;stroke-dashoffset:0;stroke-width:1.5;"/>
   </g>
   <g id="line2d_78">
    <g>
     <use style="fill-opacity:0;stroke:#000000;" x="293.749687" xlink:href="#mdc7eb5d33d" y="17.88"/>
    </g>
   </g>
   <g id="text_62">
    <!-- index1 -->
    <g transform="translate(315.349688 22.08)scale(0.12 -0.12)">
     <use xlink:href="#TimesNewRomanPS-BoldMT-105"/>
     <use x="27.783203" xlink:href="#TimesNewRomanPS-BoldMT-110"/>
     <use x="83.398438" xlink:href="#TimesNewRomanPS-BoldMT-100"/>
     <use x="139.013672" xlink:href="#TimesNewRomanPS-BoldMT-101"/>
     <use x="183.398438" xlink:href="#TimesNewRomanPS-BoldMT-120"/>
     <use x="233.398438" xlink:href="#TimesNewRomanPS-BoldMT-49"/>
    </g>
   </g>
   <g id="line2d_79">
    <path d="M 373.356562 17.88 
L 397.356562 17.88 
" style="fill:none;stroke:#000000;stroke-dasharray:5.55,2.4;stroke-dashoffset:0;stroke-width:1.5;"/>
   </g>
   <g id="line2d_80">
    <g>
     <use style="fill-opacity:0;stroke:#000000;stroke-linejoin:miter;" x="385.356562" xlink:href="#med9fd378a5" y="17.88"/>
    </g>
   </g>
   <g id="text_63">
    <!-- index2 -->
    <g transform="translate(406.956563 22.08)scale(0.12 -0.12)">
     <use xlink:href="#TimesNewRomanPS-BoldMT-105"/>
     <use x="27.783203" xlink:href="#TimesNewRomanPS-BoldMT-110"/>
     <use x="83.398438" xlink:href="#TimesNewRomanPS-BoldMT-100"/>
     <use x="139.013672" xlink:href="#TimesNewRomanPS-BoldMT-101"/>
     <use x="183.398438" xlink:href="#TimesNewRomanPS-BoldMT-120"/>
     <use x="233.398438" xlink:href="#TimesNewRomanPS-BoldMT-50"/>
    </g>
   </g>
   <g id="line2d_81">
    <path d="M 464.963437 17.88 
L 488.963437 17.88 
" style="fill:none;stroke:#0000ff;stroke-linecap:square;stroke-width:1.5;"/>
   </g>
   <g id="line2d_82">
    <g>
     <use style="fill:#0000ff;stroke:#0000ff;stroke-linejoin:miter;" x="476.963437" xlink:href="#m202a6a3d4d" y="17.88"/>
    </g>
   </g>
   <g id="text_64">
    <!-- index3 -->
    <g transform="translate(498.563438 22.08)scale(0.12 -0.12)">
     <use xlink:href="#TimesNewRomanPS-BoldMT-105"/>
     <use x="27.783203" xlink:href="#TimesNewRomanPS-BoldMT-110"/>
     <use x="83.398438" xlink:href="#TimesNewRomanPS-BoldMT-100"/>
     <use x="139.013672" xlink:href="#TimesNewRomanPS-BoldMT-101"/>
     <use x="183.398438" xlink:href="#TimesNewRomanPS-BoldMT-120"/>
     <use x="233.398438" xlink:href="#TimesNewRomanPS-BoldMT-51"/>
    </g>
   </g>
  </g>
 </g>
 <defs>
  <clipPath id="p705ddce113">
   <rect height="133.056" width="157.695652" x="45" y="49.536"/>
  </clipPath>
  <clipPath id="p9c98362bb4">
   <rect height="133.056" width="157.695652" x="234.234783" y="49.536"/>
  </clipPath>
  <clipPath id="p92887199ed">
   <rect height="133.056" width="157.695652" x="423.469565" y="49.536"/>
  </clipPath>
  <clipPath id="pe56acf913c">
   <rect height="133.056" width="157.695652" x="612.704348" y="49.536"/>
  </clipPath>
 </defs>
</svg>
